<svg xmlns="http://www.w3.org/2000/svg" xmlns:xlink="http://www.w3.org/1999/xlink" width="500" zoomAndPan="magnify" viewBox="0 0 375 149.999998" height="200" preserveAspectRatio="xMidYMid meet" version="1.0"><defs><g/></defs><path stroke-linecap="butt" transform="matrix(0.75, 0, 0, 0.75, -17.376227, -0.0216288)" fill="none" stroke-linejoin="miter" d="M 189.527689 13.914256 C 187.199564 19.992381 184.939147 28.12259 182.746438 38.304882 L 180.418313 38.304882 C 180.845397 35.544465 181.064147 33.101757 181.064147 30.976757 C 181.064147 27.596548 180.49123 24.804881 179.355813 22.617381 C 178.079771 19.992381 176.189146 17.955923 173.683938 16.502798 C 171.183938 15.054881 168.444354 14.330923 165.475604 14.330923 C 159.605812 14.330923 153.928728 17.091339 148.439145 22.617381 C 142.970394 28.12259 138.532894 35.070507 135.131852 43.455924 C 131.73081 51.830925 130.032894 59.9403 130.032894 67.794467 C 130.032894 74.580926 131.376644 79.737176 134.069352 83.278843 C 136.762061 86.815302 140.475603 88.586135 145.204769 88.586135 C 148.308936 88.586135 151.600603 87.862177 155.069353 86.409052 C 158.538104 84.961135 161.543312 82.924677 164.079771 80.299676 C 165.923521 78.471551 167.512062 76.341343 168.840187 73.903843 C 170.189146 71.455926 171.788104 68.002801 173.631854 63.549675 L 175.965188 63.549675 C 172.647479 75.789259 170.558938 84.268427 169.699563 88.997594 L 167.366229 88.997594 C 167.590187 87.513218 167.704771 86.315302 167.704771 85.398635 C 167.704771 83.554885 167.272479 82.63301 166.407896 82.63301 C 165.923521 82.63301 165.183937 82.950718 164.183937 83.591343 C 160.506854 85.987177 157.288103 87.742385 154.522478 88.846552 C 151.782895 89.929885 148.319353 90.47676 144.142269 90.47676 C 136.303727 90.47676 130.23081 88.362177 125.913102 84.13301 C 121.600601 79.888218 119.444351 73.700718 119.444351 65.570509 C 119.444351 57.4403 121.470393 49.242383 125.527685 40.971549 C 129.600602 32.68509 135.183936 25.862173 142.277686 20.492381 C 149.39227 15.122589 157.189145 12.440297 165.683937 12.440297 C 169.772479 12.440297 172.897479 13.028839 175.058938 14.200714 C 177.215188 15.356964 179.355813 17.065298 181.475605 19.325714 C 181.975605 19.96634 182.506855 20.284048 183.058938 20.284048 C 183.694355 20.284048 184.350605 19.773631 185.02248 18.758006 C 185.699563 17.721548 186.454772 16.106964 187.30373 13.914256 Z M 235.022483 80.091343 C 235.246441 82.424676 235.850608 84.122593 236.834983 85.19551 C 237.819358 86.247593 238.949567 86.810093 240.225608 86.877802 L 239.81415 88.997594 C 236.980816 88.794469 233.121441 88.690302 228.241233 88.690302 C 222.506857 88.690302 218.272482 88.794469 215.52769 88.997594 L 215.939149 86.877802 C 218.34019 86.737177 220.194357 86.44551 221.506857 85.997593 C 222.819357 85.528843 223.751649 84.674677 224.303732 83.435093 C 224.871441 82.190301 225.121441 80.367385 225.053732 77.971551 L 224.095399 60.570509 L 198.022481 60.570509 L 190.074564 71.810093 C 186.746439 76.487176 185.079772 79.992385 185.079772 82.32051 C 185.079772 85.221552 187.694355 86.737177 192.923522 86.877802 L 192.407897 88.997594 C 188.52248 88.794469 184.49123 88.690302 180.314146 88.690302 C 177.277688 88.690302 174.626646 88.794469 172.366229 88.997594 L 172.881854 86.877802 C 176.14748 86.169468 179.683938 83.096552 183.496438 77.659051 L 229.194358 13.398631 L 230.803733 13.398631 Z M 223.991232 58.450717 L 222.204774 26.315298 L 199.501648 58.450717 Z M 305.866237 13.164256 C 303.32457 19.601756 301.246445 26.820507 299.626653 34.81009 L 297.501653 34.81009 C 297.913112 32.758007 298.121445 30.737173 298.121445 28.752798 C 298.121445 24.59134 296.88707 21.174673 294.41832 18.497589 C 291.94957 15.804881 288.173528 14.461131 283.079777 14.461131 C 278.626652 14.461131 275.03811 15.591339 272.308944 17.851756 C 269.579777 20.112173 268.220402 23.471548 268.220402 27.924673 C 268.220402 31.37259 269.298527 34.549674 271.454777 37.450716 C 273.611027 40.351757 276.85061 43.784049 281.163111 47.758008 C 284.199569 50.497591 286.637069 52.898633 288.465194 54.950717 C 290.314153 57.008008 291.876653 59.278842 293.152695 61.763217 C 294.428736 64.231967 295.069362 66.877801 295.069362 69.711134 C 295.069362 74.304884 293.736028 78.169468 291.079778 81.310093 C 288.423528 84.450718 285.038111 86.763218 280.928736 88.247593 C 276.840194 89.731969 272.60061 90.47676 268.220402 90.47676 C 264.470401 90.47676 261.486026 90.018427 259.262068 89.10176 C 257.032901 88.190302 255.006859 87.023635 253.173526 85.606968 C 251.829776 84.53926 250.553734 84.002802 249.345401 84.002802 C 248.496442 84.002802 247.788109 84.435093 247.2204 85.299677 C 246.652692 86.143427 245.9079 87.627802 244.996442 89.752802 L 242.871442 89.752802 C 244.012067 87.060093 245.121442 83.82051 246.209984 80.03926 C 247.31415 76.263218 248.611025 71.013217 250.095401 64.299675 L 252.215192 64.299675 C 251.579776 67.612176 251.262067 70.226759 251.262067 72.143426 C 251.262067 77.304885 252.673526 81.299676 255.506859 84.13301 C 258.334984 86.94551 262.683943 88.35176 268.553735 88.35176 C 273.355819 88.35176 277.152694 87.25801 279.944361 85.065302 C 282.741236 82.872593 284.142278 79.549676 284.142278 75.096551 C 284.142278 72.419468 283.605819 69.950717 282.538111 67.690301 C 281.480819 65.429884 280.199569 63.435092 278.678736 61.711134 C 277.157902 59.966342 275.053735 57.78405 272.361027 55.15905 C 269.527693 52.487175 267.28811 50.195508 265.626651 48.299675 C 263.970401 46.383008 262.558943 44.159049 261.38186 41.617382 C 260.209984 39.065299 259.621443 36.226757 259.621443 33.101757 C 259.621443 28.71634 260.736026 24.971548 262.959985 21.862173 C 265.189151 18.758006 268.090193 16.409048 271.66311 14.820506 C 275.236027 13.231964 279.006861 12.440297 282.975611 12.440297 C 285.861028 12.440297 288.361028 12.794464 290.486028 13.502797 C 292.60582 14.211131 294.694361 15.341339 296.751653 16.893423 C 298.444362 18.153839 299.60582 18.784048 300.246445 18.784048 C 300.814154 18.784048 301.361029 18.341339 301.876654 17.461131 C 302.413112 16.580923 303.032904 15.148631 303.741237 13.164256 Z M 347.027698 14.226756 C 356.918323 14.226756 363.954782 14.122589 368.131866 13.914256 C 366.282907 19.008006 364.939157 23.174673 364.090199 26.419465 C 363.314157 28.976757 362.824574 31.169465 362.61624 32.99759 L 360.157907 32.99759 C 360.793324 28.909048 361.11624 26.086132 361.11624 24.52884 C 361.11624 21.492381 360.33499 19.372589 358.782907 18.164256 C 357.230823 16.955923 354.444365 16.351756 350.423531 16.351756 L 342.678739 16.351756 C 340.126656 16.351756 338.225614 16.549673 336.986031 16.945506 C 335.756864 17.325714 334.756864 18.117381 333.980822 19.325714 C 333.20478 20.534048 332.459989 22.476756 331.751655 25.15384 L 325.074572 50.1903 L 332.064155 50.1903 C 334.532905 50.1903 336.579781 49.612175 338.199572 48.455925 C 339.840197 47.278841 341.116239 45.919466 342.032906 44.362174 C 342.949573 42.794466 343.871448 40.810091 344.803739 38.409049 C 345.012073 37.700716 345.288114 36.961132 345.631864 36.179882 L 348.064156 36.179882 C 346.579781 40.862174 345.345406 45.070508 344.361031 48.8153 L 343.741239 51.2528 C 342.741239 54.997592 341.600614 60.008009 340.324572 66.294467 L 337.892281 66.294467 L 338.225614 64.195509 C 338.293322 63.695509 338.397489 62.919467 338.538114 61.867384 C 338.673531 60.794467 338.746447 59.872592 338.746447 59.09655 C 338.746447 56.97155 338.194364 55.3153 337.084989 54.122592 C 336.001656 52.914258 334.11103 52.310091 331.418322 52.310091 L 324.428738 52.310091 L 317.64228 77.763218 C 317.006863 79.955926 316.683946 81.690301 316.683946 82.966343 C 316.683946 84.450718 317.209988 85.424677 318.262071 85.893427 C 319.334988 86.341343 321.215196 86.565302 323.907905 86.565302 L 331.647489 86.565302 C 336.032906 86.565302 339.527697 85.987177 342.137073 84.830927 C 344.762073 83.659052 346.933948 81.784051 348.663115 79.211135 C 350.387073 76.622593 352.173532 72.820509 354.02249 67.794467 L 356.454782 67.794467 C 355.67874 69.851759 354.902698 72.393426 354.121448 75.435093 C 352.986032 79.388218 352.027698 83.909052 351.251656 88.997594 C 346.449573 88.794469 338.355822 88.690302 326.965197 88.690302 C 313.397488 88.690302 303.189154 88.794469 296.334987 88.997594 L 296.850612 86.877802 C 299.407903 86.737177 301.298529 86.461135 302.522487 86.049677 C 303.767279 85.617385 304.772487 84.794468 305.553737 83.591343 C 306.329779 82.38301 307.069362 80.440301 307.777696 77.763218 L 321.887071 25.15384 C 322.527696 22.893423 322.845405 21.164256 322.845405 19.976756 C 322.845405 18.471548 322.32978 17.481964 321.293321 16.997589 C 320.277696 16.497589 318.418321 16.174673 315.725613 16.039256 L 316.272488 13.914256 C 323.194363 14.122589 333.444364 14.226756 347.027698 14.226756 Z M 435.454786 12.440297 C 437.512078 12.440297 439.012078 12.976756 439.959995 14.044464 C 440.928745 15.096548 441.41312 16.435089 441.41312 18.060089 C 441.41312 19.820506 440.876662 21.502798 439.803745 23.106965 C 438.751662 24.695506 437.199578 25.487173 435.147495 25.487173 C 433.730828 25.487173 432.704786 25.080923 432.064161 24.273631 C 431.423536 23.445506 431.105828 22.43509 431.105828 21.242381 C 431.105828 20.101756 431.423536 18.955923 432.064161 17.799673 C 432.704786 16.627798 433.512078 15.580923 434.496453 14.664256 L 434.189161 14.664256 C 432.272495 14.737173 430.329786 15.513214 428.361036 16.997589 C 424.683952 19.674673 420.704786 24.002798 416.423535 29.992382 C 412.147493 35.96634 408.027701 43.690299 404.074576 53.164258 L 397.913118 77.763218 C 397.345409 80.16426 397.058951 81.85176 397.058951 82.836135 C 397.058951 84.409052 397.569368 85.44551 398.584993 85.94551 C 399.621451 86.429885 401.486034 86.737177 404.178743 86.877802 L 403.637076 88.997594 C 400.459993 88.794469 396.074576 88.690302 390.480825 88.690302 C 384.3402 88.690302 379.709991 88.794469 376.605825 88.997594 L 377.12145 86.877802 C 379.678741 86.737177 381.584992 86.461135 382.845408 86.049677 C 384.12145 85.617385 385.147492 84.778843 385.923533 83.53926 C 386.704784 82.294468 387.407909 80.367385 388.048534 77.763218 L 394.314159 53.039258 C 393.173534 43.008008 391.647492 34.705924 389.730825 28.127798 C 387.834992 21.554881 385.225617 18.263214 381.913117 18.263214 C 380.704783 18.263214 379.694366 18.653839 378.881866 19.429881 C 378.074575 20.205923 377.381866 21.476756 376.814158 23.237173 L 373.834991 31.93509 L 371.506866 31.93509 L 375.001658 21.659048 C 376.137075 18.341339 377.43395 15.976756 378.881866 14.565298 C 380.334991 13.148631 382.506867 12.440297 385.407908 12.440297 C 389.1527 12.440297 392.173534 13.961131 394.470409 16.997589 C 396.767284 20.034048 398.553743 24.27884 399.829784 29.737173 C 401.105826 35.174674 402.204784 42.195507 403.116243 50.810091 C 405.725618 44.252799 408.725618 38.320507 412.12666 33.023632 C 415.527702 27.705923 419.137077 23.143423 422.949577 19.325714 C 427.543328 14.737173 431.709994 12.440297 435.454786 12.440297 Z M 435.454786 12.440297 " stroke="#fd89ea" stroke-width="2.38617" stroke-opacity="1" stroke-miterlimit="4"/><path stroke-linecap="butt" transform="matrix(0.75, 0, 0, 0.75, -17.376227, -0.0216288)" fill="none" stroke-linejoin="miter" d="M 126.819352 100.049678 C 129.079769 100.049678 130.69956 100.539261 131.683935 101.523636 C 132.683935 102.508011 133.183935 103.820511 133.183935 105.461136 C 133.183935 107.35697 132.616227 109.101761 131.475602 110.690303 C 130.35581 112.278845 128.834977 113.070512 126.91831 113.070512 C 125.506852 113.070512 124.475602 112.664262 123.840185 111.85697 C 123.19956 111.04447 122.881851 110.07572 122.881851 108.955928 C 122.881851 107.815303 123.19956 106.648636 123.840185 105.461136 C 124.475602 104.252803 125.288102 103.190303 126.272477 102.273636 L 125.959977 102.273636 C 122.491226 102.341344 119.595393 104.148636 117.262059 107.685095 C 114.157893 112.346553 110.902684 120.560095 107.501642 132.336138 C 104.121434 144.106972 100.272475 160.169473 95.954767 180.518432 L 93.626641 180.518432 L 69.444348 112.242387 C 65.97039 129.987179 62.699556 144.976763 59.631848 157.216348 C 56.558931 169.435098 53.605806 177.419474 50.772472 181.164266 C 49.220389 183.221557 47.574555 184.841349 45.829764 186.034058 C 44.105805 187.242391 41.970388 187.846558 39.43393 187.846558 C 35.189138 187.846558 33.064138 186.008016 33.064138 182.330932 C 33.064138 180.429891 33.637055 178.705932 34.772471 177.153849 C 35.897471 175.580932 37.413096 174.794474 39.329763 174.794474 C 40.74643 174.794474 41.767263 175.21114 42.387055 176.039265 C 43.022472 176.851765 43.345389 177.815307 43.345389 178.940307 C 43.345389 180.075724 43.022472 181.242391 42.387055 182.435099 C 41.767263 183.643432 40.954763 184.705932 39.954763 185.617391 L 40.288097 185.617391 C 43.897472 185.549683 46.829764 183.711141 49.090181 180.101766 C 51.699556 175.924682 54.418306 168.471557 57.246431 157.731973 C 60.079764 146.981972 63.152681 133.117388 66.465182 116.153845 C 66.897473 114.096553 67.111015 112.508012 67.111015 111.38822 C 67.111015 109.695511 66.543307 108.586136 65.402681 108.049678 C 64.28289 107.51322 62.131848 107.174678 58.954764 107.039261 L 59.475598 104.914261 C 61.736015 105.122594 64.887056 105.226761 68.923515 105.226761 C 72.168307 105.226761 75.027682 105.122594 77.496432 104.914261 L 97.532892 163.560098 C 100.590184 149.992389 103.558934 138.247596 106.439142 128.320513 C 109.340184 118.377804 112.319351 111.216345 115.371434 106.830928 C 118.48081 102.310094 122.29331 100.049678 126.819352 100.049678 Z M 165.850604 105.226761 C 175.74123 105.226761 182.777688 105.122594 186.954772 104.914261 C 185.105813 110.008011 183.762063 114.174678 182.913105 117.41947 C 182.137063 119.976762 181.64748 122.16947 181.439147 123.997596 L 178.980813 123.997596 C 179.61623 119.909054 179.939146 117.086137 179.939146 115.528845 C 179.939146 112.492387 179.157896 110.372595 177.605813 109.164261 C 176.05373 107.955928 173.267271 107.351761 169.241229 107.351761 L 161.501645 107.351761 C 158.949562 107.351761 157.04852 107.549678 155.803728 107.945511 C 154.57977 108.32572 153.57977 109.117386 152.803728 110.32572 C 152.027687 111.534053 151.282895 113.476762 150.574561 116.153845 L 143.897478 141.190305 L 150.887061 141.190305 C 153.355812 141.190305 155.402687 140.61218 157.022478 139.45593 C 158.663104 138.278846 159.939145 136.919471 160.855812 135.36218 C 161.76727 133.794471 162.694354 131.810096 163.626646 129.409054 C 163.834979 128.700721 164.111021 127.961137 164.454771 127.179887 L 166.887062 127.179887 C 165.402687 131.862179 164.168312 136.070513 163.183937 139.815305 L 162.564145 142.252805 C 161.564145 145.997597 160.42352 151.008014 159.147479 157.294473 L 156.709978 157.294473 L 157.04852 155.195514 C 157.116228 154.695514 157.220395 153.919472 157.36102 152.867389 C 157.496437 151.794472 157.564145 150.872597 157.564145 150.096555 C 157.564145 147.971555 157.012062 146.315305 155.907895 145.122597 C 154.824562 143.914263 152.933937 143.310097 150.241228 143.310097 L 143.246436 143.310097 L 136.465186 168.763223 C 135.824561 170.955932 135.506852 172.690307 135.506852 173.966348 C 135.506852 175.450724 136.032894 176.424682 137.084977 176.893432 C 138.157894 177.341349 140.038102 177.565307 142.730811 177.565307 L 150.470395 177.565307 C 154.855812 177.565307 158.350604 176.987182 160.959979 175.830932 C 163.579771 174.659057 165.756854 172.784057 167.480812 170.21114 C 169.209979 167.622598 170.996438 163.820515 172.840188 158.794473 L 175.277688 158.794473 C 174.501646 160.851764 173.720396 163.393431 172.944354 166.435098 C 171.808938 170.388223 170.850604 174.909057 170.074563 179.997599 C 165.272479 179.794474 157.178728 179.690307 145.788103 179.690307 C 132.220394 179.690307 122.01206 179.794474 115.157893 179.997599 L 115.673518 177.877807 C 118.23081 177.737182 120.121435 177.46114 121.345393 177.049682 C 122.590185 176.61739 123.595393 175.794474 124.376643 174.591349 C 125.152685 173.383015 125.892268 171.440307 126.600602 168.763223 L 140.709978 116.153845 C 141.350603 113.893428 141.668311 112.164262 141.668311 110.976761 C 141.668311 109.471553 141.152686 108.48197 140.116227 107.997595 C 139.095394 107.497595 137.241227 107.174678 134.548519 107.039261 L 135.095394 104.914261 C 142.017269 105.122594 152.26727 105.226761 165.850604 105.226761 Z M 277.397485 105.226761 C 280.506861 105.226761 283.189152 105.122594 285.449569 104.914261 L 284.933944 107.039261 C 280.756861 107.955928 277.397485 111.023636 274.861027 116.258012 L 243.147483 180.518432 L 241.459983 180.518432 L 233.824566 132.179888 L 205.084981 180.518432 L 203.376648 180.518432 L 195.012064 113.820512 C 194.444356 109.440303 192.491231 107.174678 189.163105 107.039261 L 189.600605 104.914261 C 192.418314 105.122594 195.913106 105.226761 200.090189 105.226761 C 205.178731 105.226761 209.001648 105.122594 211.55894 104.914261 L 211.116232 107.039261 C 208.923523 107.174678 207.355815 107.66947 206.407898 108.51322 C 205.454773 109.362178 204.980815 110.924678 204.980815 113.20072 C 204.980815 113.617387 205.048523 114.528845 205.189148 115.945512 L 211.116232 166.534056 L 233.2829 128.893429 L 230.949566 113.820512 C 230.241233 109.440303 228.652691 107.174678 226.183941 107.039261 L 226.600608 104.914261 C 229.152691 105.122594 232.303733 105.226761 236.048525 105.226761 C 242.12665 105.226761 246.647484 105.122594 249.616234 104.914261 L 249.204776 107.039261 C 246.012067 107.174678 243.808942 107.601761 242.600608 108.310095 C 241.4079 109.01322 240.81415 110.429886 240.81415 112.554887 C 240.81415 113.539262 240.918317 114.66947 241.12665 115.945512 L 248.762067 164.205931 L 269.449568 122.10697 C 271.782902 117.289262 272.94436 113.85697 272.94436 111.804887 C 272.94436 110.04447 272.28811 108.82572 270.97561 108.153845 C 269.683943 107.476761 267.621443 107.10697 264.78811 107.039261 L 265.308943 104.914261 C 269.277693 105.122594 273.308944 105.226761 277.397485 105.226761 Z M 357.902699 105.226761 C 363.340199 105.226761 367.756866 105.122594 371.157908 104.914261 L 370.616241 107.039261 C 368.006866 107.174678 366.084991 107.461136 364.840199 107.893428 C 363.600616 108.310095 362.605824 109.117386 361.86624 110.32572 C 361.121449 111.534053 360.39749 113.476762 359.689157 116.153845 L 345.709989 168.763223 C 345.137073 171.164265 344.855823 172.851765 344.855823 173.83614 C 344.855823 175.409057 345.361031 176.445515 346.381865 176.945515 C 347.418323 177.42989 349.27249 177.737182 351.949573 177.877807 L 351.532906 179.997599 C 348.27249 179.794474 343.887073 179.690307 338.381864 179.690307 C 332.147489 179.690307 327.54853 179.794474 324.57978 179.997599 L 325.022488 177.877807 C 327.626655 177.737182 329.553739 177.46114 330.793322 177.049682 C 332.038114 176.61739 333.027697 175.794474 333.772489 174.591349 C 334.512072 173.383015 335.241239 171.440307 335.944364 168.763223 L 351.324573 111.596553 L 307.308946 180.518432 L 304.98082 180.518432 L 297.756862 110.742386 L 282.715194 167.700723 C 282.147486 170.101765 281.861027 171.872598 281.861027 173.008015 C 281.861027 174.768432 282.439152 175.987182 283.595403 176.659057 C 284.767278 177.330932 286.840194 177.737182 289.808945 177.877807 L 289.267278 179.997599 C 286.866236 179.794474 283.303736 179.690307 278.574569 179.690307 C 274.397485 179.690307 271.074568 179.794474 268.605818 179.997599 L 269.121443 177.877807 C 271.605818 177.737182 273.517277 177.36739 274.845402 176.763224 C 276.189152 176.159057 277.251652 175.190307 278.027694 173.862182 C 278.803736 172.518432 279.548527 170.46114 280.256861 167.700723 L 294.053736 116.153845 C 294.626653 113.752803 294.907903 112.060095 294.907903 111.07572 C 294.907903 109.508011 294.392278 108.48197 293.35582 107.997595 C 292.340195 107.497595 290.48082 107.174678 287.788111 107.039261 L 288.334986 104.914261 C 290.595403 105.122594 293.736028 105.226761 297.756862 105.226761 C 301.501654 105.226761 304.616237 105.122594 307.105821 104.914261 L 312.928738 167.80489 L 352.80374 105.226761 Z M 414.18916 171.091348 C 414.413118 173.424682 415.017285 175.122599 416.00166 176.195515 C 416.986035 177.247599 418.116244 177.810099 419.397494 177.877807 L 418.980827 179.997599 C 416.152702 179.794474 412.293327 179.690307 407.40791 179.690307 C 401.678743 179.690307 397.439159 179.794474 394.694367 179.997599 L 395.111034 177.877807 C 397.506867 177.737182 399.366243 177.445515 400.678743 176.997599 C 401.986034 176.528849 402.918326 175.674682 403.47041 174.435099 C 404.043326 173.190307 404.293326 171.36739 404.225618 168.971557 L 403.267284 151.570514 L 377.194366 151.570514 L 369.246449 162.810098 C 365.913116 167.487181 364.246449 170.99239 364.246449 173.320515 C 364.246449 176.221557 366.861032 177.737182 372.090199 177.877807 L 371.574574 179.997599 C 367.689157 179.794474 363.657907 179.690307 359.480824 179.690307 C 356.444365 179.690307 353.798532 179.794474 351.532906 179.997599 L 352.05374 177.877807 C 355.314157 177.169474 358.855824 174.096557 362.668324 168.659057 L 408.366243 104.398636 L 409.97041 104.398636 Z M 403.163118 149.450722 L 401.376659 117.315304 L 378.668325 149.450722 Z M 510.069374 100.049678 C 512.329791 100.049678 513.954791 100.539261 514.939166 101.523636 C 515.939166 102.508011 516.439166 103.820511 516.439166 105.461136 C 516.439166 107.35697 515.871458 109.101761 514.730833 110.690303 C 513.605833 112.278845 512.090208 113.070512 510.173541 113.070512 C 508.756874 113.070512 507.730832 112.664262 507.090207 111.85697 C 506.454791 111.04447 506.131874 110.07572 506.131874 108.955928 C 506.131874 107.815303 506.454791 106.648636 507.090207 105.461136 C 507.730832 104.252803 508.543332 103.190303 509.527707 102.273636 L 509.215207 102.273636 C 505.746457 102.341344 502.845415 104.148636 500.51729 107.685095 C 497.407915 112.346553 494.152706 120.560095 490.756873 132.336138 C 487.371456 144.106972 483.522498 160.169473 479.209997 180.518432 L 476.876664 180.518432 L 452.694371 112.242387 C 449.225621 129.987179 445.954787 144.976763 442.88187 157.216348 C 439.808953 169.435098 436.855828 177.419474 434.027703 181.164266 C 432.47562 183.221557 430.824578 184.841349 429.079786 186.034058 C 427.355828 187.242391 425.225619 187.846558 422.689161 187.846558 C 418.43916 187.846558 416.319369 186.008016 416.319369 182.330932 C 416.319369 180.429891 416.887077 178.705932 418.027702 177.153849 C 419.147494 175.580932 420.668327 174.794474 422.584994 174.794474 C 423.996452 174.794474 425.017286 175.21114 425.637077 176.039265 C 426.277703 176.851765 426.595411 177.815307 426.595411 178.940307 C 426.595411 180.075724 426.277703 181.242391 425.637077 182.435099 C 425.017286 183.643432 424.204786 184.705932 423.204786 185.617391 L 423.543327 185.617391 C 427.147494 185.549683 430.084994 183.711141 432.345411 180.101766 C 434.949578 175.924682 437.668328 168.471557 440.501662 157.731973 C 443.329787 146.981972 446.402704 133.117388 449.715204 116.153845 C 450.147496 114.096553 450.366246 112.508012 450.366246 111.38822 C 450.366246 109.695511 449.793329 108.586136 448.657912 108.049678 C 447.532912 107.51322 445.387079 107.174678 442.209995 107.039261 L 442.72562 104.914261 C 444.986037 105.122594 448.137079 105.226761 452.178746 105.226761 C 455.423538 105.226761 458.277704 105.122594 460.746455 104.914261 L 480.788122 163.560098 C 483.840206 149.992389 486.808956 138.247596 489.694373 128.320513 C 492.595415 118.377804 495.569373 111.216345 498.626665 106.830928 C 501.730832 102.310094 505.54854 100.049678 510.069374 100.049678 Z M 510.069374 100.049678 " stroke="#fd89ea" stroke-width="2.38617" stroke-opacity="1" stroke-miterlimit="4"/><g fill="#f8f0fa" fill-opacity="1"><g transform="translate(68.147206, 66.728367)"><g><path d="M 56.625 -56.3125 C 54.875 -51.75 53.175781 -45.648438 51.53125 -38.015625 L 49.78125 -38.015625 C 50.101562 -40.085938 50.265625 -41.914062 50.265625 -43.5 C 50.265625 -46.050781 49.835938 -48.144531 48.984375 -49.78125 C 48.035156 -51.75 46.617188 -53.273438 44.734375 -54.359375 C 42.847656 -55.441406 40.796875 -55.984375 38.578125 -55.984375 C 34.171875 -55.984375 29.910156 -53.914062 25.796875 -49.78125 C 21.691406 -45.644531 18.367188 -40.4375 15.828125 -34.15625 C 13.285156 -27.875 12.015625 -21.789062 12.015625 -15.90625 C 12.015625 -10.8125 13.019531 -6.9375 15.03125 -4.28125 C 17.039062 -1.632812 19.820312 -0.3125 23.375 -0.3125 C 25.707031 -0.3125 28.171875 -0.851562 30.765625 -1.9375 C 33.367188 -3.03125 35.625 -4.554688 37.53125 -6.515625 C 38.914062 -7.898438 40.109375 -9.503906 41.109375 -11.328125 C 42.117188 -13.160156 43.316406 -15.75 44.703125 -19.09375 L 46.453125 -19.09375 C 43.953125 -9.914062 42.382812 -3.550781 41.75 0 L 40 0 C 40.164062 -1.113281 40.25 -2.015625 40.25 -2.703125 C 40.25 -4.078125 39.925781 -4.765625 39.28125 -4.765625 C 38.914062 -4.765625 38.363281 -4.53125 37.625 -4.0625 C 34.863281 -2.257812 32.445312 -0.945312 30.375 -0.125 C 28.3125 0.695312 25.71875 1.109375 22.59375 1.109375 C 16.707031 1.109375 12.144531 -0.476562 8.90625 -3.65625 C 5.675781 -6.84375 4.0625 -11.484375 4.0625 -17.578125 C 4.0625 -23.671875 5.582031 -29.816406 8.625 -36.015625 C 11.675781 -42.222656 15.863281 -47.34375 21.1875 -51.375 C 26.519531 -55.40625 32.367188 -57.421875 38.734375 -57.421875 C 41.804688 -57.421875 44.148438 -56.984375 45.765625 -56.109375 C 47.390625 -55.234375 48.992188 -53.945312 50.578125 -52.25 C 50.953125 -51.769531 51.351562 -51.53125 51.78125 -51.53125 C 52.25 -51.53125 52.734375 -51.914062 53.234375 -52.6875 C 53.742188 -53.457031 54.316406 -54.664062 54.953125 -56.3125 Z M 56.625 -56.3125 "/></g></g></g><g fill="#f8f0fa" fill-opacity="1"><g transform="translate(118.810993, 66.728367)"><g><path d="M 40.078125 -6.6875 C 40.242188 -4.9375 40.695312 -3.660156 41.4375 -2.859375 C 42.175781 -2.066406 43.023438 -1.644531 43.984375 -1.59375 L 43.65625 0 C 41.539062 -0.15625 38.65625 -0.234375 35 -0.234375 C 30.695312 -0.234375 27.515625 -0.15625 25.453125 0 L 25.765625 -1.59375 C 27.566406 -1.695312 28.957031 -1.921875 29.9375 -2.265625 C 30.925781 -2.609375 31.628906 -3.242188 32.046875 -4.171875 C 32.472656 -5.097656 32.660156 -6.460938 32.609375 -8.265625 L 31.890625 -21.3125 L 12.328125 -21.3125 L 6.359375 -12.890625 C 3.867188 -9.390625 2.625 -6.765625 2.625 -5.015625 C 2.625 -2.835938 4.585938 -1.695312 8.515625 -1.59375 L 8.109375 0 C 5.191406 -0.15625 2.171875 -0.234375 -0.953125 -0.234375 C -3.234375 -0.234375 -5.222656 -0.15625 -6.921875 0 L -6.515625 -1.59375 C -4.078125 -2.125 -1.425781 -4.429688 1.4375 -8.515625 L 35.703125 -56.703125 L 36.90625 -56.703125 Z M 31.8125 -22.90625 L 30.453125 -47 L 13.4375 -22.90625 Z M 31.8125 -22.90625 "/></g></g></g><g fill="#f8f0fa" fill-opacity="1"><g transform="translate(166.213832, 66.728367)"><g><path d="M 45.8125 -56.859375 C 43.90625 -52.035156 42.34375 -46.628906 41.125 -40.640625 L 39.53125 -40.640625 C 39.84375 -42.179688 40 -43.691406 40 -45.171875 C 40 -48.296875 39.070312 -50.863281 37.21875 -52.875 C 35.363281 -54.894531 32.523438 -55.90625 28.703125 -55.90625 C 25.367188 -55.90625 22.679688 -55.054688 20.640625 -53.359375 C 18.597656 -51.671875 17.578125 -49.15625 17.578125 -45.8125 C 17.578125 -43.207031 18.382812 -40.816406 20 -38.640625 C 21.613281 -36.472656 24.039062 -33.90625 27.28125 -30.9375 C 29.5625 -28.863281 31.390625 -27.054688 32.765625 -25.515625 C 34.140625 -23.984375 35.304688 -22.289062 36.265625 -20.4375 C 37.222656 -18.582031 37.703125 -16.59375 37.703125 -14.46875 C 37.703125 -11.03125 36.707031 -8.128906 34.71875 -5.765625 C 32.726562 -3.410156 30.191406 -1.675781 27.109375 -0.5625 C 24.035156 0.550781 20.859375 1.109375 17.578125 1.109375 C 14.765625 1.109375 12.519531 0.765625 10.84375 0.078125 C 9.175781 -0.609375 7.65625 -1.484375 6.28125 -2.546875 C 5.269531 -3.335938 4.316406 -3.734375 3.421875 -3.734375 C 2.785156 -3.734375 2.253906 -3.414062 1.828125 -2.78125 C 1.398438 -2.144531 0.84375 -1.03125 0.15625 0.5625 L -1.4375 0.5625 C -0.582031 -1.457031 0.253906 -3.882812 1.078125 -6.71875 C 1.898438 -9.550781 2.863281 -13.488281 3.96875 -18.53125 L 5.5625 -18.53125 C 5.082031 -16.039062 4.84375 -14.078125 4.84375 -12.640625 C 4.84375 -8.773438 5.90625 -5.78125 8.03125 -3.65625 C 10.15625 -1.539062 13.414062 -0.484375 17.8125 -0.484375 C 21.414062 -0.484375 24.265625 -1.300781 26.359375 -2.9375 C 28.453125 -4.582031 29.5 -7.078125 29.5 -10.421875 C 29.5 -12.429688 29.101562 -14.285156 28.3125 -15.984375 C 27.519531 -17.679688 26.550781 -19.175781 25.40625 -20.46875 C 24.269531 -21.769531 22.691406 -23.40625 20.671875 -25.375 C 18.554688 -27.382812 16.875 -29.101562 15.625 -30.53125 C 14.382812 -31.96875 13.328125 -33.640625 12.453125 -35.546875 C 11.578125 -37.453125 11.140625 -39.570312 11.140625 -41.90625 C 11.140625 -45.195312 11.972656 -48.007812 13.640625 -50.34375 C 15.304688 -52.675781 17.476562 -54.4375 20.15625 -55.625 C 22.832031 -56.820312 25.65625 -57.421875 28.625 -57.421875 C 30.800781 -57.421875 32.679688 -57.15625 34.265625 -56.625 C 35.859375 -56.09375 37.425781 -55.242188 38.96875 -54.078125 C 40.238281 -53.128906 41.113281 -52.65625 41.59375 -52.65625 C 42.019531 -52.65625 42.429688 -52.984375 42.828125 -53.640625 C 43.222656 -54.304688 43.6875 -55.378906 44.21875 -56.859375 Z M 45.8125 -56.859375 "/></g></g></g><g fill="#f8f0fa" fill-opacity="1"><g transform="translate(207.651523, 66.728367)"><g><path d="M 35.234375 -56.0625 C 42.648438 -56.0625 47.925781 -56.144531 51.0625 -56.3125 C 49.675781 -52.488281 48.664062 -49.359375 48.03125 -46.921875 C 47.445312 -45.015625 47.078125 -43.375 46.921875 -42 L 45.09375 -42 C 45.570312 -45.070312 45.8125 -47.191406 45.8125 -48.359375 C 45.8125 -50.640625 45.226562 -52.226562 44.0625 -53.125 C 42.894531 -54.03125 40.800781 -54.484375 37.78125 -54.484375 L 31.96875 -54.484375 C 30.0625 -54.484375 28.644531 -54.335938 27.71875 -54.046875 C 26.789062 -53.753906 26.035156 -53.15625 25.453125 -52.25 C 24.867188 -51.351562 24.3125 -49.894531 23.78125 -47.875 L 18.765625 -29.109375 L 24.015625 -29.109375 C 25.867188 -29.109375 27.40625 -29.546875 28.625 -30.421875 C 29.84375 -31.296875 30.796875 -32.316406 31.484375 -33.484375 C 32.179688 -34.648438 32.875 -36.132812 33.5625 -37.9375 C 33.71875 -38.46875 33.929688 -39.023438 34.203125 -39.609375 L 36.03125 -39.609375 C 34.914062 -36.109375 33.988281 -32.953125 33.25 -30.140625 L 32.765625 -28.3125 C 32.023438 -25.5 31.175781 -21.734375 30.21875 -17.015625 L 28.390625 -17.015625 L 28.625 -18.609375 C 28.675781 -18.984375 28.753906 -19.566406 28.859375 -20.359375 C 28.972656 -21.148438 29.03125 -21.835938 29.03125 -22.421875 C 29.03125 -24.015625 28.617188 -25.257812 27.796875 -26.15625 C 26.972656 -27.0625 25.554688 -27.515625 23.546875 -27.515625 L 18.296875 -27.515625 L 13.203125 -8.4375 C 12.722656 -6.789062 12.484375 -5.488281 12.484375 -4.53125 C 12.484375 -3.414062 12.878906 -2.6875 13.671875 -2.34375 C 14.472656 -2 15.878906 -1.828125 17.890625 -1.828125 L 23.703125 -1.828125 C 26.984375 -1.828125 29.601562 -2.265625 31.5625 -3.140625 C 33.53125 -4.015625 35.160156 -5.421875 36.453125 -7.359375 C 37.753906 -9.296875 39.097656 -12.144531 40.484375 -15.90625 L 42.3125 -15.90625 C 41.726562 -14.363281 41.144531 -12.457031 40.5625 -10.1875 C 39.707031 -7.207031 38.988281 -3.8125 38.40625 0 C 34.800781 -0.15625 28.734375 -0.234375 20.203125 -0.234375 C 10.023438 -0.234375 2.363281 -0.15625 -2.78125 0 L -2.390625 -1.59375 C -0.472656 -1.695312 0.945312 -1.90625 1.875 -2.21875 C 2.800781 -2.539062 3.554688 -3.148438 4.140625 -4.046875 C 4.722656 -4.953125 5.28125 -6.414062 5.8125 -8.4375 L 16.390625 -47.875 C 16.859375 -49.570312 17.09375 -50.875 17.09375 -51.78125 C 17.09375 -52.882812 16.707031 -53.625 15.9375 -54 C 15.175781 -54.375 13.785156 -54.613281 11.765625 -54.71875 L 12.171875 -56.3125 C 17.367188 -56.144531 25.054688 -56.0625 35.234375 -56.0625 Z M 35.234375 -56.0625 "/></g></g></g><g fill="#f8f0fa" fill-opacity="1"><g transform="translate(253.543199, 66.728367)"><g><path d="M 55.671875 -57.421875 C 57.210938 -57.421875 58.335938 -57.019531 59.046875 -56.21875 C 59.765625 -55.425781 60.125 -54.421875 60.125 -53.203125 C 60.125 -51.878906 59.722656 -50.617188 58.921875 -49.421875 C 58.128906 -48.234375 56.96875 -47.640625 55.4375 -47.640625 C 54.375 -47.640625 53.601562 -47.941406 53.125 -48.546875 C 52.644531 -49.160156 52.40625 -49.921875 52.40625 -50.828125 C 52.40625 -51.671875 52.644531 -52.53125 53.125 -53.40625 C 53.601562 -54.28125 54.210938 -55.0625 54.953125 -55.75 L 54.71875 -55.75 C 53.28125 -55.695312 51.820312 -55.113281 50.34375 -54 C 47.582031 -51.988281 44.597656 -48.738281 41.390625 -44.25 C 38.179688 -39.769531 35.09375 -33.976562 32.125 -26.875 L 27.515625 -8.4375 C 27.085938 -6.625 26.875 -5.347656 26.875 -4.609375 C 26.875 -3.441406 27.257812 -2.671875 28.03125 -2.296875 C 28.800781 -1.929688 30.191406 -1.695312 32.203125 -1.59375 L 31.8125 0 C 29.425781 -0.15625 26.140625 -0.234375 21.953125 -0.234375 C 17.335938 -0.234375 13.863281 -0.15625 11.53125 0 L 11.921875 -1.59375 C 13.835938 -1.695312 15.269531 -1.90625 16.21875 -2.21875 C 17.175781 -2.539062 17.945312 -3.164062 18.53125 -4.09375 C 19.113281 -5.019531 19.644531 -6.46875 20.125 -8.4375 L 24.8125 -26.96875 C 23.96875 -34.488281 22.828125 -40.710938 21.390625 -45.640625 C 19.960938 -50.578125 18.003906 -53.046875 15.515625 -53.046875 C 14.609375 -53.046875 13.847656 -52.753906 13.234375 -52.171875 C 12.628906 -51.585938 12.113281 -50.632812 11.6875 -49.3125 L 9.46875 -42.78125 L 7.71875 -42.78125 L 10.34375 -50.5 C 11.1875 -52.988281 12.148438 -54.765625 13.234375 -55.828125 C 14.328125 -56.890625 15.960938 -57.421875 18.140625 -57.421875 C 20.941406 -57.421875 23.203125 -56.28125 24.921875 -54 C 26.648438 -51.71875 27.988281 -48.535156 28.9375 -44.453125 C 29.894531 -40.367188 30.722656 -35.09375 31.421875 -28.625 C 33.378906 -33.5625 35.628906 -38.015625 38.171875 -41.984375 C 40.722656 -45.960938 43.425781 -49.382812 46.28125 -52.25 C 49.726562 -55.695312 52.859375 -57.421875 55.671875 -57.421875 Z M 55.671875 -57.421875 "/></g></g></g><g fill="#f8f0fa" fill-opacity="1"><g transform="translate(13.151115, 134.978363)"><g><path d="M 64.578125 -59.96875 C 66.273438 -59.96875 67.492188 -59.59375 68.234375 -58.84375 C 68.972656 -58.101562 69.34375 -57.125 69.34375 -55.90625 C 69.34375 -54.476562 68.921875 -53.164062 68.078125 -51.96875 C 67.234375 -50.78125 66.09375 -50.1875 64.65625 -50.1875 C 63.59375 -50.1875 62.820312 -50.488281 62.34375 -51.09375 C 61.875 -51.707031 61.640625 -52.4375 61.640625 -53.28125 C 61.640625 -54.132812 61.875 -55.007812 62.34375 -55.90625 C 62.820312 -56.8125 63.4375 -57.609375 64.1875 -58.296875 L 63.9375 -58.296875 C 61.34375 -58.242188 59.171875 -56.890625 57.421875 -54.234375 C 55.085938 -50.734375 52.644531 -44.566406 50.09375 -35.734375 C 47.550781 -26.910156 44.664062 -14.867188 41.4375 0.390625 L 39.6875 0.390625 L 21.546875 -50.828125 C 18.953125 -37.515625 16.5 -26.269531 14.1875 -17.09375 C 11.882812 -7.925781 9.675781 -1.9375 7.5625 0.875 C 6.394531 2.414062 5.160156 3.632812 3.859375 4.53125 C 2.554688 5.4375 0.953125 5.890625 -0.953125 5.890625 C -4.128906 5.890625 -5.71875 4.507812 -5.71875 1.75 C -5.71875 0.320312 -5.296875 -0.972656 -4.453125 -2.140625 C -3.609375 -3.304688 -2.46875 -3.890625 -1.03125 -3.890625 C 0.03125 -3.890625 0.796875 -3.582031 1.265625 -2.96875 C 1.742188 -2.363281 1.984375 -1.640625 1.984375 -0.796875 C 1.984375 0.0546875 1.742188 0.929688 1.265625 1.828125 C 0.796875 2.734375 0.1875 3.53125 -0.5625 4.21875 L -0.3125 4.21875 C 2.382812 4.164062 4.582031 2.785156 6.28125 0.078125 C 8.238281 -3.046875 10.28125 -8.640625 12.40625 -16.703125 C 14.53125 -24.765625 16.835938 -35.15625 19.328125 -47.875 C 19.640625 -49.414062 19.796875 -50.609375 19.796875 -51.453125 C 19.796875 -52.722656 19.375 -53.554688 18.53125 -53.953125 C 17.6875 -54.359375 16.066406 -54.613281 13.671875 -54.71875 L 14.078125 -56.3125 C 15.773438 -56.144531 18.132812 -56.0625 21.15625 -56.0625 C 23.59375 -56.0625 25.738281 -56.144531 27.59375 -56.3125 L 42.625 -12.328125 C 44.90625 -22.503906 47.128906 -31.316406 49.296875 -38.765625 C 51.472656 -46.222656 53.703125 -51.59375 55.984375 -54.875 C 58.316406 -58.269531 61.179688 -59.96875 64.578125 -59.96875 Z M 64.578125 -59.96875 "/></g></g></g><g fill="#f8f0fa" fill-opacity="1"><g transform="translate(71.768419, 134.978363)"><g><path d="M 35.234375 -56.0625 C 42.648438 -56.0625 47.925781 -56.144531 51.0625 -56.3125 C 49.675781 -52.488281 48.664062 -49.359375 48.03125 -46.921875 C 47.445312 -45.015625 47.078125 -43.375 46.921875 -42 L 45.09375 -42 C 45.570312 -45.070312 45.8125 -47.191406 45.8125 -48.359375 C 45.8125 -50.640625 45.226562 -52.226562 44.0625 -53.125 C 42.894531 -54.03125 40.800781 -54.484375 37.78125 -54.484375 L 31.96875 -54.484375 C 30.0625 -54.484375 28.644531 -54.335938 27.71875 -54.046875 C 26.789062 -53.753906 26.035156 -53.15625 25.453125 -52.25 C 24.867188 -51.351562 24.3125 -49.894531 23.78125 -47.875 L 18.765625 -29.109375 L 24.015625 -29.109375 C 25.867188 -29.109375 27.40625 -29.546875 28.625 -30.421875 C 29.84375 -31.296875 30.796875 -32.316406 31.484375 -33.484375 C 32.179688 -34.648438 32.875 -36.132812 33.5625 -37.9375 C 33.71875 -38.46875 33.929688 -39.023438 34.203125 -39.609375 L 36.03125 -39.609375 C 34.914062 -36.109375 33.988281 -32.953125 33.25 -30.140625 L 32.765625 -28.3125 C 32.023438 -25.5 31.175781 -21.734375 30.21875 -17.015625 L 28.390625 -17.015625 L 28.625 -18.609375 C 28.675781 -18.984375 28.753906 -19.566406 28.859375 -20.359375 C 28.972656 -21.148438 29.03125 -21.835938 29.03125 -22.421875 C 29.03125 -24.015625 28.617188 -25.257812 27.796875 -26.15625 C 26.972656 -27.0625 25.554688 -27.515625 23.546875 -27.515625 L 18.296875 -27.515625 L 13.203125 -8.4375 C 12.722656 -6.789062 12.484375 -5.488281 12.484375 -4.53125 C 12.484375 -3.414062 12.878906 -2.6875 13.671875 -2.34375 C 14.472656 -2 15.878906 -1.828125 17.890625 -1.828125 L 23.703125 -1.828125 C 26.984375 -1.828125 29.601562 -2.265625 31.5625 -3.140625 C 33.53125 -4.015625 35.160156 -5.421875 36.453125 -7.359375 C 37.753906 -9.296875 39.097656 -12.144531 40.484375 -15.90625 L 42.3125 -15.90625 C 41.726562 -14.363281 41.144531 -12.457031 40.5625 -10.1875 C 39.707031 -7.207031 38.988281 -3.8125 38.40625 0 C 34.800781 -0.15625 28.734375 -0.234375 20.203125 -0.234375 C 10.023438 -0.234375 2.363281 -0.15625 -2.78125 0 L -2.390625 -1.59375 C -0.472656 -1.695312 0.945312 -1.90625 1.875 -2.21875 C 2.800781 -2.539062 3.554688 -3.148438 4.140625 -4.046875 C 4.722656 -4.953125 5.28125 -6.414062 5.8125 -8.4375 L 16.390625 -47.875 C 16.859375 -49.570312 17.09375 -50.875 17.09375 -51.78125 C 17.09375 -52.882812 16.707031 -53.625 15.9375 -54 C 15.175781 -54.375 13.785156 -54.613281 11.765625 -54.71875 L 12.171875 -56.3125 C 17.367188 -56.144531 25.054688 -56.0625 35.234375 -56.0625 Z M 35.234375 -56.0625 "/></g></g></g><g fill="#f8f0fa" fill-opacity="1"><g transform="translate(117.660088, 134.978363)"><g><path d="M 73.015625 -56.0625 C 75.347656 -56.0625 77.359375 -56.144531 79.046875 -56.3125 L 78.65625 -54.71875 C 75.53125 -54.03125 73.007812 -51.722656 71.09375 -47.796875 L 47.328125 0.390625 L 46.046875 0.390625 L 40.328125 -35.875 L 18.765625 0.390625 L 17.5 0.390625 L 11.21875 -49.625 C 10.789062 -52.914062 9.332031 -54.613281 6.84375 -54.71875 L 7.15625 -56.3125 C 9.28125 -56.144531 11.90625 -56.0625 15.03125 -56.0625 C 18.84375 -56.0625 21.707031 -56.144531 23.625 -56.3125 L 23.296875 -54.71875 C 21.660156 -54.613281 20.484375 -54.242188 19.765625 -53.609375 C 19.046875 -52.972656 18.6875 -51.804688 18.6875 -50.109375 C 18.6875 -49.785156 18.738281 -49.09375 18.84375 -48.03125 L 23.296875 -10.09375 L 39.921875 -38.328125 L 38.171875 -49.625 C 37.640625 -52.914062 36.445312 -54.613281 34.59375 -54.71875 L 34.921875 -56.3125 C 36.828125 -56.144531 39.1875 -56.0625 42 -56.0625 C 46.550781 -56.0625 49.941406 -56.144531 52.171875 -56.3125 L 51.859375 -54.71875 C 49.472656 -54.613281 47.828125 -54.296875 46.921875 -53.765625 C 46.023438 -53.234375 45.578125 -52.171875 45.578125 -50.578125 C 45.578125 -49.835938 45.65625 -48.988281 45.8125 -48.03125 L 51.53125 -11.84375 L 67.046875 -43.421875 C 68.796875 -47.023438 69.671875 -49.597656 69.671875 -51.140625 C 69.671875 -52.460938 69.179688 -53.375 68.203125 -53.875 C 67.222656 -54.382812 65.671875 -54.664062 63.546875 -54.71875 L 63.9375 -56.3125 C 66.90625 -56.144531 69.929688 -56.0625 73.015625 -56.0625 Z M 73.015625 -56.0625 "/></g></g></g><g fill="#f8f0fa" fill-opacity="1"><g transform="translate(186.776036, 134.978363)"><g><path d="M 64.265625 -56.0625 C 68.347656 -56.0625 71.660156 -56.144531 74.203125 -56.3125 L 73.8125 -54.71875 C 71.84375 -54.613281 70.394531 -54.398438 69.46875 -54.078125 C 68.539062 -53.765625 67.796875 -53.15625 67.234375 -52.25 C 66.679688 -51.351562 66.140625 -49.894531 65.609375 -47.875 L 55.109375 -8.4375 C 54.691406 -6.625 54.484375 -5.347656 54.484375 -4.609375 C 54.484375 -3.441406 54.863281 -2.671875 55.625 -2.296875 C 56.394531 -1.929688 57.789062 -1.695312 59.8125 -1.59375 L 59.484375 0 C 57.046875 -0.15625 53.757812 -0.234375 49.625 -0.234375 C 44.957031 -0.234375 41.507812 -0.15625 39.28125 0 L 39.609375 -1.59375 C 41.566406 -1.695312 43.007812 -1.90625 43.9375 -2.21875 C 44.863281 -2.539062 45.601562 -3.148438 46.15625 -4.046875 C 46.71875 -4.953125 47.265625 -6.414062 47.796875 -8.4375 L 59.328125 -51.296875 L 26.328125 0.390625 L 24.578125 0.390625 L 19.171875 -51.9375 L 7.875 -9.21875 C 7.445312 -7.414062 7.234375 -6.09375 7.234375 -5.25 C 7.234375 -3.925781 7.671875 -3.007812 8.546875 -2.5 C 9.421875 -2 10.972656 -1.695312 13.203125 -1.59375 L 12.796875 0 C 10.992188 -0.15625 8.316406 -0.234375 4.765625 -0.234375 C 1.640625 -0.234375 -0.847656 -0.15625 -2.703125 0 L -2.3125 -1.59375 C -0.445312 -1.695312 0.984375 -1.972656 1.984375 -2.421875 C 2.992188 -2.878906 3.789062 -3.609375 4.375 -4.609375 C 4.957031 -5.617188 5.515625 -7.15625 6.046875 -9.21875 L 16.390625 -47.875 C 16.804688 -49.675781 17.015625 -50.945312 17.015625 -51.6875 C 17.015625 -52.851562 16.628906 -53.625 15.859375 -54 C 15.097656 -54.375 13.707031 -54.613281 11.6875 -54.71875 L 12.09375 -56.3125 C 13.789062 -56.144531 16.148438 -56.0625 19.171875 -56.0625 C 21.972656 -56.0625 24.304688 -56.144531 26.171875 -56.3125 L 30.546875 -9.140625 L 60.4375 -56.0625 Z M 64.265625 -56.0625 "/></g></g></g><g fill="#f8f0fa" fill-opacity="1"><g transform="translate(253.18779, 134.978363)"><g><path d="M 40.078125 -6.6875 C 40.242188 -4.9375 40.695312 -3.660156 41.4375 -2.859375 C 42.175781 -2.066406 43.023438 -1.644531 43.984375 -1.59375 L 43.65625 0 C 41.539062 -0.15625 38.65625 -0.234375 35 -0.234375 C 30.695312 -0.234375 27.515625 -0.15625 25.453125 0 L 25.765625 -1.59375 C 27.566406 -1.695312 28.957031 -1.921875 29.9375 -2.265625 C 30.925781 -2.609375 31.628906 -3.242188 32.046875 -4.171875 C 32.472656 -5.097656 32.660156 -6.460938 32.609375 -8.265625 L 31.890625 -21.3125 L 12.328125 -21.3125 L 6.359375 -12.890625 C 3.867188 -9.390625 2.625 -6.765625 2.625 -5.015625 C 2.625 -2.835938 4.585938 -1.695312 8.515625 -1.59375 L 8.109375 0 C 5.191406 -0.15625 2.171875 -0.234375 -0.953125 -0.234375 C -3.234375 -0.234375 -5.222656 -0.15625 -6.921875 0 L -6.515625 -1.59375 C -4.078125 -2.125 -1.425781 -4.429688 1.4375 -8.515625 L 35.703125 -56.703125 L 36.90625 -56.703125 Z M 31.8125 -22.90625 L 30.453125 -47 L 13.4375 -22.90625 Z M 31.8125 -22.90625 "/></g></g></g><g fill="#f8f0fa" fill-opacity="1"><g transform="translate(300.590634, 134.978363)"><g><path d="M 64.578125 -59.96875 C 66.273438 -59.96875 67.492188 -59.59375 68.234375 -58.84375 C 68.972656 -58.101562 69.34375 -57.125 69.34375 -55.90625 C 69.34375 -54.476562 68.921875 -53.164062 68.078125 -51.96875 C 67.234375 -50.78125 66.09375 -50.1875 64.65625 -50.1875 C 63.59375 -50.1875 62.820312 -50.488281 62.34375 -51.09375 C 61.875 -51.707031 61.640625 -52.4375 61.640625 -53.28125 C 61.640625 -54.132812 61.875 -55.007812 62.34375 -55.90625 C 62.820312 -56.8125 63.4375 -57.609375 64.1875 -58.296875 L 63.9375 -58.296875 C 61.34375 -58.242188 59.171875 -56.890625 57.421875 -54.234375 C 55.085938 -50.734375 52.644531 -44.566406 50.09375 -35.734375 C 47.550781 -26.910156 44.664062 -14.867188 41.4375 0.390625 L 39.6875 0.390625 L 21.546875 -50.828125 C 18.953125 -37.515625 16.5 -26.269531 14.1875 -17.09375 C 11.882812 -7.925781 9.675781 -1.9375 7.5625 0.875 C 6.394531 2.414062 5.160156 3.632812 3.859375 4.53125 C 2.554688 5.4375 0.953125 5.890625 -0.953125 5.890625 C -4.128906 5.890625 -5.71875 4.507812 -5.71875 1.75 C -5.71875 0.320312 -5.296875 -0.972656 -4.453125 -2.140625 C -3.609375 -3.304688 -2.46875 -3.890625 -1.03125 -3.890625 C 0.03125 -3.890625 0.796875 -3.582031 1.265625 -2.96875 C 1.742188 -2.363281 1.984375 -1.640625 1.984375 -0.796875 C 1.984375 0.0546875 1.742188 0.929688 1.265625 1.828125 C 0.796875 2.734375 0.1875 3.53125 -0.5625 4.21875 L -0.3125 4.21875 C 2.382812 4.164062 4.582031 2.785156 6.28125 0.078125 C 8.238281 -3.046875 10.28125 -8.640625 12.40625 -16.703125 C 14.53125 -24.765625 16.835938 -35.15625 19.328125 -47.875 C 19.640625 -49.414062 19.796875 -50.609375 19.796875 -51.453125 C 19.796875 -52.722656 19.375 -53.554688 18.53125 -53.953125 C 17.6875 -54.359375 16.066406 -54.613281 13.671875 -54.71875 L 14.078125 -56.3125 C 15.773438 -56.144531 18.132812 -56.0625 21.15625 -56.0625 C 23.59375 -56.0625 25.738281 -56.144531 27.59375 -56.3125 L 42.625 -12.328125 C 44.90625 -22.503906 47.128906 -31.316406 49.296875 -38.765625 C 51.472656 -46.222656 53.703125 -51.59375 55.984375 -54.875 C 58.316406 -58.269531 61.179688 -59.96875 64.578125 -59.96875 Z M 64.578125 -59.96875 "/></g></g></g></svg>