<svg xmlns="http://www.w3.org/2000/svg" xmlns:xlink="http://www.w3.org/1999/xlink" width="1080" zoomAndPan="magnify" viewBox="0 0 810 809.999993" height="1080" preserveAspectRatio="xMidYMid meet" version="1.0"><defs><g/></defs><rect x="-81" width="972" fill="#ffffff" y="-80.999999" height="971.999992" fill-opacity="1"/><rect x="-81" width="972" fill="#ffffff" y="-80.999999" height="971.999992" fill-opacity="1"/><g fill="#000000" fill-opacity="1"><g transform="translate(72.836709, 510.69735)"><g><path d="M 106.84375 -291.257812 C -11.707031 -291.257812 -75.375 35.125 35.859375 65.863281 C 54.886719 70.984375 78.304688 65.863281 101.722656 48.300781 C 167.582031 -0.730469 266.378906 -119.285156 306.625 -171.972656 C 306.625 -175.632812 297.113281 -175.632812 294.1875 -172.707031 C 262.71875 -132.457031 151.484375 2.925781 88.546875 44.640625 C 65.863281 59.277344 46.105469 62.203125 35.859375 55.617188 C -19.757812 32.199219 56.347656 -253.203125 106.84375 -277.355469 C 133.1875 -289.792969 175.632812 -219.542969 109.769531 -188.074219 C 115.625 -188.074219 118.550781 -188.074219 122.941406 -188.074219 C 176.363281 -207.832031 158.800781 -291.257812 106.84375 -291.257812 Z M 106.84375 -291.257812 "/></g></g></g><g fill="#000000" fill-opacity="1"><g transform="translate(366.290275, 510.69735)"><g><path d="M 51.957031 -223.933594 C 54.886719 -252.472656 12.441406 -234.175781 5.121094 -204.90625 C -16.101562 -72.449219 -9.511719 -93.671875 -21.953125 -1.464844 C -24.148438 16.832031 4.390625 32.929688 15.367188 0 L 29.273438 -73.914062 C 85.621094 -264.914062 172.707031 -348.339844 210.761719 -320.53125 C 248.8125 -293.453125 136.847656 5.121094 204.171875 40.25 C 223.199219 49.761719 233.445312 49.761719 259.058594 30.734375 C 324.921875 -18.296875 398.101562 -119.285156 438.351562 -171.972656 C 438.351562 -175.632812 428.835938 -175.632812 425.910156 -172.707031 C 394.441406 -132.457031 310.285156 -12.441406 245.886719 27.078125 C 136.847656 93.671875 317.601562 -249.546875 218.078125 -329.3125 C 181.488281 -357.851562 106.113281 -310.285156 41.714844 -146.359375 C 45.371094 -170.511719 48.300781 -192.464844 51.957031 -223.933594 Z M 51.957031 -223.933594 "/></g></g></g></svg>