<svg xmlns="http://www.w3.org/2000/svg" xmlns:xlink="http://www.w3.org/1999/xlink" width="400" zoomAndPan="magnify" viewBox="0 0 300 74.999997" height="100" preserveAspectRatio="xMidYMid meet" version="1.0"><defs><g/><clipPath id="0ac897d1bf"><path d="M 76.601562 25 L 295 25 L 295 45 L 76.601562 45 Z M 76.601562 25 " clip-rule="nonzero"/></clipPath></defs><g clip-path="url(#0ac897d1bf)"><path fill="#000000" d="M 78.035156 36.753906 C 77.429688 37.683594 76.617188 36.953125 77.136719 36.136719 C 96.347656 6.125 108.402344 46.839844 147.023438 43.421875 C 206.488281 38.15625 256.199219 21.359375 293.199219 35.824219 C 295.777344 36.832031 293.960938 38.945312 291.789062 37.957031 C 260.992188 23.960938 203.789062 38.617188 146.765625 44.554688 C 108.125 48.578125 97.203125 7.234375 78.035156 36.753906 Z M 78.035156 36.753906 " fill-opacity="1" fill-rule="nonzero"/></g><g fill="#000000" fill-opacity="1"><g transform="translate(9.041332, 51.993085)"><g><path d="M 10.125 -27.578125 C 11.363281 -27.578125 12.363281 -27.171875 13.125 -26.359375 C 13.894531 -25.554688 14.394531 -24.578125 14.625 -23.421875 C 14.851562 -22.265625 14.722656 -21.15625 14.234375 -20.09375 C 13.753906 -19.03125 12.890625 -18.269531 11.640625 -17.8125 C 11.453125 -17.8125 11.265625 -17.8125 11.078125 -17.8125 C 10.898438 -17.8125 10.671875 -17.8125 10.390625 -17.8125 C 11.960938 -18.550781 12.957031 -19.453125 13.375 -20.515625 C 13.789062 -21.578125 13.847656 -22.601562 13.546875 -23.59375 C 13.242188 -24.582031 12.757812 -25.34375 12.09375 -25.875 C 11.425781 -26.40625 10.769531 -26.535156 10.125 -26.265625 C 9.332031 -25.890625 8.5 -24.914062 7.625 -23.34375 C 6.75 -21.78125 5.90625 -19.863281 5.09375 -17.59375 C 4.28125 -15.332031 3.570312 -12.953125 2.96875 -10.453125 C 2.375 -7.960938 1.960938 -5.597656 1.734375 -3.359375 C 1.503906 -1.117188 1.503906 0.785156 1.734375 2.359375 C 1.960938 3.929688 2.515625 4.898438 3.390625 5.265625 C 3.898438 5.585938 4.59375 5.664062 5.46875 5.5 C 6.351562 5.34375 7.328125 4.921875 8.390625 4.234375 C 9.585938 3.441406 10.925781 2.351562 12.40625 0.96875 C 13.882812 -0.414062 15.394531 -1.9375 16.9375 -3.59375 C 18.488281 -5.257812 19.976562 -6.925781 21.40625 -8.59375 C 22.84375 -10.257812 24.125 -11.785156 25.25 -13.171875 C 26.382812 -14.554688 27.253906 -15.617188 27.859375 -16.359375 C 27.992188 -16.492188 28.222656 -16.5625 28.546875 -16.5625 C 28.867188 -16.5625 29.03125 -16.46875 29.03125 -16.28125 C 28.0625 -15.03125 26.8125 -13.46875 25.28125 -11.59375 C 23.757812 -9.726562 22.085938 -7.769531 20.265625 -5.71875 C 18.441406 -3.664062 16.601562 -1.726562 14.75 0.09375 C 12.90625 1.925781 11.195312 3.421875 9.625 4.578125 C 8.519531 5.410156 7.4375 5.953125 6.375 6.203125 C 5.3125 6.453125 4.316406 6.460938 3.390625 6.234375 C 1.867188 5.816406 0.679688 4.90625 -0.171875 3.5 C -1.023438 2.09375 -1.585938 0.363281 -1.859375 -1.6875 C -2.140625 -3.75 -2.164062 -5.945312 -1.9375 -8.28125 C -1.707031 -10.613281 -1.242188 -12.910156 -0.546875 -15.171875 C 0.140625 -17.441406 1.003906 -19.507812 2.046875 -21.375 C 3.085938 -23.25 4.285156 -24.75 5.640625 -25.875 C 7.003906 -27.007812 8.5 -27.578125 10.125 -27.578125 Z M 10.125 -27.578125 "/></g></g></g><g fill="#000000" fill-opacity="1"><g transform="translate(36.823122, 51.993085)"><g><path d="M 4.921875 -21.203125 C 4.734375 -19.722656 4.570312 -18.414062 4.4375 -17.28125 C 4.300781 -16.15625 4.140625 -15.015625 3.953125 -13.859375 C 5.984375 -19.035156 8.0625 -23.039062 10.1875 -25.875 C 12.3125 -28.71875 14.296875 -30.539062 16.140625 -31.34375 C 17.992188 -32.15625 19.5 -32.101562 20.65625 -31.1875 C 21.988281 -30.125 22.851562 -28.609375 23.25 -26.640625 C 23.644531 -24.679688 23.722656 -22.5 23.484375 -20.09375 C 23.253906 -17.695312 22.882812 -15.25 22.375 -12.75 C 21.875 -10.257812 21.367188 -7.90625 20.859375 -5.6875 C 20.347656 -3.46875 20.007812 -1.582031 19.84375 -0.03125 C 19.6875 1.507812 19.847656 2.546875 20.328125 3.078125 C 20.816406 3.609375 21.800781 3.4375 23.28125 2.5625 C 24.8125 1.632812 26.414062 0.316406 28.09375 -1.390625 C 29.78125 -3.097656 31.410156 -4.921875 32.984375 -6.859375 C 34.554688 -8.796875 35.988281 -10.617188 37.28125 -12.328125 C 38.570312 -14.046875 39.585938 -15.390625 40.328125 -16.359375 C 40.460938 -16.492188 40.691406 -16.5625 41.015625 -16.5625 C 41.347656 -16.5625 41.515625 -16.46875 41.515625 -16.28125 C 40.535156 -15.03125 39.398438 -13.550781 38.109375 -11.84375 C 36.816406 -10.132812 35.421875 -8.367188 33.921875 -6.546875 C 32.421875 -4.722656 30.875 -2.976562 29.28125 -1.3125 C 27.6875 0.34375 26.101562 1.75 24.53125 2.90625 C 23.332031 3.789062 22.394531 4.273438 21.71875 4.359375 C 21.050781 4.453125 20.253906 4.269531 19.328125 3.8125 C 18.410156 3.351562 17.8125 2.425781 17.53125 1.03125 C 17.25 -0.351562 17.164062 -2.015625 17.28125 -3.953125 C 17.40625 -5.890625 17.648438 -7.976562 18.015625 -10.21875 C 18.390625 -12.457031 18.796875 -14.6875 19.234375 -16.90625 C 19.671875 -19.125 20.023438 -21.179688 20.296875 -23.078125 C 20.578125 -24.972656 20.71875 -26.566406 20.71875 -27.859375 C 20.71875 -29.148438 20.460938 -29.984375 19.953125 -30.359375 C 18.753906 -31.234375 17.140625 -30.941406 15.109375 -29.484375 C 13.078125 -28.023438 10.960938 -25.425781 8.765625 -21.6875 C 6.566406 -17.945312 4.566406 -13.050781 2.765625 -7 L 1.453125 0 C 1.128906 1.019531 0.664062 1.597656 0.0625 1.734375 C -0.53125 1.867188 -1.046875 1.726562 -1.484375 1.3125 C -1.921875 0.894531 -2.117188 0.410156 -2.078125 -0.140625 C -1.847656 -1.890625 -1.675781 -3.285156 -1.5625 -4.328125 C -1.445312 -5.367188 -1.34375 -6.289062 -1.25 -7.09375 C -1.15625 -7.90625 -1.050781 -8.785156 -0.9375 -9.734375 C -0.820312 -10.679688 -0.660156 -11.90625 -0.453125 -13.40625 C -0.242188 -14.90625 0.0664062 -16.90625 0.484375 -19.40625 C 0.710938 -20.320312 1.207031 -21.082031 1.96875 -21.6875 C 2.738281 -22.289062 3.445312 -22.59375 4.09375 -22.59375 C 4.738281 -22.59375 5.015625 -22.128906 4.921875 -21.203125 Z M 4.921875 -21.203125 "/></g></g></g><g fill="#000000" fill-opacity="1"><g transform="translate(119.826676, 62.114507)"><g><path d="M 8.921875 -4.265625 C 8.859375 -3.285156 8.644531 -2.46875 8.28125 -1.8125 C 7.914062 -1.15625 7.445312 -0.660156 6.875 -0.328125 C 6.300781 -0.00390625 5.65625 0.15625 4.9375 0.15625 C 4.101562 0.15625 3.363281 -0.0546875 2.71875 -0.484375 C 2.070312 -0.921875 1.566406 -1.519531 1.203125 -2.28125 C 0.847656 -3.050781 0.671875 -3.941406 0.671875 -4.953125 C 0.671875 -5.992188 0.863281 -6.910156 1.25 -7.703125 C 1.644531 -8.503906 2.191406 -9.128906 2.890625 -9.578125 C 3.585938 -10.023438 4.398438 -10.25 5.328125 -10.25 C 6.015625 -10.25 6.640625 -10.125 7.203125 -9.875 C 7.773438 -9.625 8.257812 -9.285156 8.65625 -8.859375 L 8.328125 -7.75 C 8.117188 -8.132812 7.859375 -8.503906 7.546875 -8.859375 C 7.242188 -9.222656 6.882812 -9.519531 6.46875 -9.75 C 6.0625 -9.988281 5.597656 -10.109375 5.078125 -10.109375 C 4.441406 -10.109375 3.863281 -9.921875 3.34375 -9.546875 C 2.832031 -9.171875 2.425781 -8.632812 2.125 -7.9375 C 1.820312 -7.238281 1.671875 -6.394531 1.671875 -5.40625 C 1.671875 -4.40625 1.828125 -3.53125 2.140625 -2.78125 C 2.460938 -2.039062 2.90625 -1.460938 3.46875 -1.046875 C 4.03125 -0.640625 4.679688 -0.4375 5.421875 -0.4375 C 5.796875 -0.4375 6.164062 -0.5 6.53125 -0.625 C 6.894531 -0.75 7.234375 -0.957031 7.546875 -1.25 C 7.859375 -1.539062 8.125 -1.9375 8.34375 -2.4375 C 8.570312 -2.945312 8.726562 -3.585938 8.8125 -4.359375 Z M 8.921875 -4.265625 "/></g></g></g><g fill="#000000" fill-opacity="1"><g transform="translate(133.113893, 62.114507)"><g><path d="M 4.453125 -10.109375 L 4.890625 -10.109375 L 8.234375 -0.921875 C 8.347656 -0.640625 8.492188 -0.441406 8.671875 -0.328125 C 8.847656 -0.210938 9.007812 -0.15625 9.15625 -0.15625 L 9.25 -0.15625 L 9.25 0 L 6.734375 0 L 6.734375 -0.15625 L 6.828125 -0.15625 C 6.960938 -0.15625 7.078125 -0.210938 7.171875 -0.328125 C 7.273438 -0.441406 7.269531 -0.640625 7.15625 -0.921875 L 6.546875 -2.640625 L 1.875 -2.640625 L 1.265625 -0.921875 C 1.160156 -0.640625 1.15625 -0.441406 1.25 -0.328125 C 1.34375 -0.210938 1.460938 -0.15625 1.609375 -0.15625 L 1.6875 -0.15625 L 1.6875 0 L 0.09375 0 L 0.09375 -0.15625 L 0.171875 -0.15625 C 0.328125 -0.15625 0.492188 -0.210938 0.671875 -0.328125 C 0.847656 -0.441406 0.992188 -0.640625 1.109375 -0.921875 Z M 1.9375 -2.78125 L 6.5 -2.78125 L 4.21875 -9.046875 Z M 1.9375 -2.78125 "/></g></g></g><g fill="#000000" fill-opacity="1"><g transform="translate(146.223784, 62.114507)"><g><path d="M 7 -2.671875 C 7 -2.097656 6.859375 -1.597656 6.578125 -1.171875 C 6.304688 -0.753906 5.921875 -0.425781 5.421875 -0.1875 C 4.929688 0.0390625 4.347656 0.15625 3.671875 0.15625 C 3.335938 0.15625 2.976562 0.113281 2.59375 0.03125 C 2.21875 -0.0390625 1.851562 -0.175781 1.5 -0.375 C 1.144531 -0.582031 0.84375 -0.867188 0.59375 -1.234375 L 0.921875 -2.359375 C 1.203125 -1.640625 1.566406 -1.066406 2.015625 -0.640625 C 2.472656 -0.210938 3.0625 0 3.78125 0 C 4.476562 0 5.039062 -0.203125 5.46875 -0.609375 C 5.90625 -1.023438 6.125 -1.554688 6.125 -2.203125 C 6.125 -2.628906 6.023438 -2.988281 5.828125 -3.28125 C 5.640625 -3.570312 5.390625 -3.820312 5.078125 -4.03125 C 4.773438 -4.238281 4.429688 -4.421875 4.046875 -4.578125 C 3.671875 -4.742188 3.296875 -4.910156 2.921875 -5.078125 C 2.554688 -5.242188 2.21875 -5.4375 1.90625 -5.65625 C 1.601562 -5.882812 1.351562 -6.15625 1.15625 -6.46875 C 0.96875 -6.789062 0.875 -7.191406 0.875 -7.671875 C 0.875 -8.453125 1.148438 -9.078125 1.703125 -9.546875 C 2.253906 -10.015625 2.988281 -10.25 3.90625 -10.25 C 4.207031 -10.25 4.546875 -10.210938 4.921875 -10.140625 C 5.296875 -10.066406 5.660156 -9.925781 6.015625 -9.71875 C 6.367188 -9.519531 6.664062 -9.234375 6.90625 -8.859375 L 6.578125 -7.75 C 6.304688 -8.46875 5.945312 -9.039062 5.5 -9.46875 C 5.050781 -9.894531 4.488281 -10.109375 3.8125 -10.109375 C 3.207031 -10.109375 2.710938 -9.929688 2.328125 -9.578125 C 1.941406 -9.222656 1.75 -8.742188 1.75 -8.140625 C 1.75 -7.710938 1.84375 -7.359375 2.03125 -7.078125 C 2.21875 -6.796875 2.46875 -6.554688 2.78125 -6.359375 C 3.09375 -6.160156 3.4375 -5.984375 3.8125 -5.828125 C 4.1875 -5.671875 4.5625 -5.507812 4.9375 -5.34375 C 5.3125 -5.1875 5.648438 -4.992188 5.953125 -4.765625 C 6.265625 -4.535156 6.515625 -4.25 6.703125 -3.90625 C 6.898438 -3.570312 7 -3.160156 7 -2.671875 Z M 7 -2.671875 "/></g></g></g><g fill="#000000" fill-opacity="1"><g transform="translate(157.683161, 62.114507)"><g><path d="M 0.59375 0 L 0.59375 -0.15625 L 0.671875 -0.15625 C 0.828125 -0.15625 0.972656 -0.210938 1.109375 -0.328125 C 1.242188 -0.441406 1.3125 -0.640625 1.3125 -0.921875 L 1.3125 -9.1875 C 1.3125 -9.46875 1.242188 -9.664062 1.109375 -9.78125 C 0.972656 -9.894531 0.828125 -9.953125 0.671875 -9.953125 L 0.59375 -9.953125 L 0.59375 -10.109375 L 6.828125 -10.109375 L 7.140625 -8.15625 L 7.015625 -8.15625 C 6.929688 -8.425781 6.832031 -8.695312 6.71875 -8.96875 C 6.601562 -9.25 6.445312 -9.484375 6.25 -9.671875 C 6.0625 -9.859375 5.800781 -9.953125 5.46875 -9.953125 L 2.3125 -9.953125 L 2.3125 -5.125 L 5.28125 -5.125 C 5.445312 -5.125 5.585938 -5.207031 5.703125 -5.375 C 5.816406 -5.550781 5.90625 -5.753906 5.96875 -5.984375 C 6.03125 -6.210938 6.0625 -6.40625 6.0625 -6.5625 L 6.203125 -6.5625 L 6.203125 -3.53125 L 6.0625 -3.53125 C 6.0625 -3.695312 6.03125 -3.890625 5.96875 -4.109375 C 5.90625 -4.335938 5.816406 -4.539062 5.703125 -4.71875 C 5.585938 -4.894531 5.445312 -4.984375 5.28125 -4.984375 L 2.3125 -4.984375 L 2.3125 -0.15625 L 5.3125 -0.15625 C 5.570312 -0.15625 5.800781 -0.242188 6 -0.421875 C 6.207031 -0.597656 6.390625 -0.816406 6.546875 -1.078125 C 6.703125 -1.347656 6.828125 -1.625 6.921875 -1.90625 C 7.023438 -2.195312 7.097656 -2.453125 7.140625 -2.671875 L 7.296875 -2.671875 L 6.828125 0 Z M 0.59375 0 "/></g></g></g><g fill="#000000" fill-opacity="1"><g transform="translate(169.374433, 62.114507)"><g><path d="M 4.84375 -4.953125 L 4.84375 -0.921875 C 4.84375 -0.640625 4.910156 -0.441406 5.046875 -0.328125 C 5.191406 -0.210938 5.335938 -0.15625 5.484375 -0.15625 L 5.5625 -0.15625 L 5.5625 0 L 3.109375 0 L 3.109375 -0.15625 L 3.203125 -0.15625 C 3.347656 -0.15625 3.488281 -0.210938 3.625 -0.328125 C 3.757812 -0.441406 3.828125 -0.640625 3.828125 -0.921875 L 3.828125 -4.671875 L 1.234375 -9.1875 C 1.066406 -9.46875 0.878906 -9.664062 0.671875 -9.78125 C 0.472656 -9.894531 0.300781 -9.953125 0.15625 -9.953125 L 0.0625 -9.953125 L 0.0625 -10.109375 L 2.6875 -10.109375 L 2.6875 -9.953125 L 2.59375 -9.953125 C 2.445312 -9.953125 2.335938 -9.894531 2.265625 -9.78125 C 2.191406 -9.664062 2.238281 -9.46875 2.40625 -9.1875 L 4.78125 -5.09375 L 7.34375 -9.1875 C 7.519531 -9.46875 7.578125 -9.664062 7.515625 -9.78125 C 7.453125 -9.894531 7.347656 -9.953125 7.203125 -9.953125 L 7.109375 -9.953125 L 7.109375 -10.109375 L 8.734375 -10.109375 L 8.734375 -9.953125 L 8.640625 -9.953125 C 8.492188 -9.953125 8.3125 -9.894531 8.09375 -9.78125 C 7.882812 -9.664062 7.691406 -9.46875 7.515625 -9.1875 Z M 4.84375 -4.953125 "/></g></g></g><g fill="#000000" fill-opacity="1"><g transform="translate(181.938706, 62.114507)"><g/></g></g><g fill="#000000" fill-opacity="1"><g transform="translate(188.855754, 62.114507)"><g><path d="M 2.09375 -0.15625 L 2.171875 -0.15625 L 2.171875 0 L 0.59375 0 L 0.59375 -0.15625 L 0.671875 -0.15625 C 0.828125 -0.15625 0.972656 -0.210938 1.109375 -0.328125 C 1.242188 -0.441406 1.3125 -0.640625 1.3125 -0.921875 L 1.3125 -9.1875 C 1.3125 -9.46875 1.242188 -9.664062 1.109375 -9.78125 C 0.972656 -9.894531 0.828125 -9.953125 0.671875 -9.953125 L 0.59375 -9.953125 L 0.59375 -10.109375 L 2.125 -10.109375 L 7.71875 -1.4375 L 7.71875 -9.1875 C 7.71875 -9.46875 7.644531 -9.664062 7.5 -9.78125 C 7.363281 -9.894531 7.222656 -9.953125 7.078125 -9.953125 L 7 -9.953125 L 7 -10.109375 L 8.578125 -10.109375 L 8.578125 -9.953125 L 8.5 -9.953125 C 8.351562 -9.953125 8.207031 -9.894531 8.0625 -9.78125 C 7.925781 -9.664062 7.859375 -9.46875 7.859375 -9.1875 L 7.859375 0 L 7.4375 0 L 1.453125 -9.296875 L 1.453125 -0.921875 C 1.453125 -0.640625 1.519531 -0.441406 1.65625 -0.328125 C 1.800781 -0.210938 1.945312 -0.15625 2.09375 -0.15625 Z M 2.09375 -0.15625 "/></g></g></g><g fill="#000000" fill-opacity="1"><g transform="translate(201.77468, 62.114507)"><g><path d="M 0.59375 0 L 0.59375 -0.15625 L 0.671875 -0.15625 C 0.828125 -0.15625 0.972656 -0.210938 1.109375 -0.328125 C 1.242188 -0.441406 1.3125 -0.640625 1.3125 -0.921875 L 1.3125 -9.1875 C 1.3125 -9.46875 1.242188 -9.664062 1.109375 -9.78125 C 0.972656 -9.894531 0.828125 -9.953125 0.671875 -9.953125 L 0.59375 -9.953125 L 0.59375 -10.109375 L 6.828125 -10.109375 L 7.140625 -8.15625 L 7.015625 -8.15625 C 6.929688 -8.425781 6.832031 -8.695312 6.71875 -8.96875 C 6.601562 -9.25 6.445312 -9.484375 6.25 -9.671875 C 6.0625 -9.859375 5.800781 -9.953125 5.46875 -9.953125 L 2.3125 -9.953125 L 2.3125 -5.125 L 5.28125 -5.125 C 5.445312 -5.125 5.585938 -5.207031 5.703125 -5.375 C 5.816406 -5.550781 5.90625 -5.753906 5.96875 -5.984375 C 6.03125 -6.210938 6.0625 -6.40625 6.0625 -6.5625 L 6.203125 -6.5625 L 6.203125 -3.53125 L 6.0625 -3.53125 C 6.0625 -3.695312 6.03125 -3.890625 5.96875 -4.109375 C 5.90625 -4.335938 5.816406 -4.539062 5.703125 -4.71875 C 5.585938 -4.894531 5.445312 -4.984375 5.28125 -4.984375 L 2.3125 -4.984375 L 2.3125 -0.15625 L 5.3125 -0.15625 C 5.570312 -0.15625 5.800781 -0.242188 6 -0.421875 C 6.207031 -0.597656 6.390625 -0.816406 6.546875 -1.078125 C 6.703125 -1.347656 6.828125 -1.625 6.921875 -1.90625 C 7.023438 -2.195312 7.097656 -2.453125 7.140625 -2.671875 L 7.296875 -2.671875 L 6.828125 0 Z M 0.59375 0 "/></g></g></g><g fill="#000000" fill-opacity="1"><g transform="translate(213.465951, 62.114507)"><g><path d="M 8.859375 0 L 8.40625 0 L 6.390625 -6.46875 L 4.375 0 L 3.921875 0 L 1.078125 -9.1875 C 0.984375 -9.46875 0.847656 -9.664062 0.671875 -9.78125 C 0.503906 -9.894531 0.34375 -9.953125 0.1875 -9.953125 L 0.109375 -9.953125 L 0.109375 -10.109375 L 2.609375 -10.109375 L 2.609375 -9.953125 L 2.53125 -9.953125 C 2.382812 -9.953125 2.253906 -9.894531 2.140625 -9.78125 C 2.035156 -9.664062 2.03125 -9.46875 2.125 -9.1875 L 4.609375 -1.21875 L 6.3125 -6.703125 L 5.546875 -9.1875 C 5.460938 -9.46875 5.332031 -9.664062 5.15625 -9.78125 C 4.976562 -9.894531 4.816406 -9.953125 4.671875 -9.953125 L 4.578125 -9.953125 L 4.578125 -10.109375 L 7.078125 -10.109375 L 7.078125 -9.953125 L 7 -9.953125 C 6.851562 -9.953125 6.726562 -9.894531 6.625 -9.78125 C 6.519531 -9.664062 6.515625 -9.46875 6.609375 -9.1875 L 9.078125 -1.21875 L 11.5625 -9.1875 C 11.664062 -9.46875 11.664062 -9.664062 11.5625 -9.78125 C 11.457031 -9.894531 11.332031 -9.953125 11.1875 -9.953125 L 11.09375 -9.953125 L 11.09375 -10.109375 L 12.6875 -10.109375 L 12.6875 -9.953125 L 12.59375 -9.953125 C 12.445312 -9.953125 12.285156 -9.894531 12.109375 -9.78125 C 11.941406 -9.664062 11.8125 -9.46875 11.71875 -9.1875 Z M 8.859375 0 "/></g></g></g><g fill="#000000" fill-opacity="1"><g transform="translate(230.026918, 62.114507)"><g><path d="M 2.09375 -0.15625 L 2.171875 -0.15625 L 2.171875 0 L 0.59375 0 L 0.59375 -0.15625 L 0.671875 -0.15625 C 0.828125 -0.15625 0.972656 -0.210938 1.109375 -0.328125 C 1.242188 -0.441406 1.3125 -0.640625 1.3125 -0.921875 L 1.3125 -9.1875 C 1.3125 -9.46875 1.242188 -9.664062 1.109375 -9.78125 C 0.972656 -9.894531 0.828125 -9.953125 0.671875 -9.953125 L 0.59375 -9.953125 L 0.59375 -10.109375 L 2.1875 -10.109375 L 5.71875 -1.34375 L 9.234375 -10.109375 L 10.96875 -10.109375 L 10.96875 -9.953125 L 10.875 -9.953125 C 10.726562 -9.953125 10.585938 -9.894531 10.453125 -9.78125 C 10.316406 -9.664062 10.25 -9.46875 10.25 -9.1875 L 10.25 -0.921875 C 10.25 -0.640625 10.316406 -0.441406 10.453125 -0.328125 C 10.585938 -0.210938 10.726562 -0.15625 10.875 -0.15625 L 10.96875 -0.15625 L 10.96875 0 L 8.515625 0 L 8.515625 -0.15625 L 8.59375 -0.15625 C 8.738281 -0.15625 8.878906 -0.210938 9.015625 -0.328125 C 9.160156 -0.441406 9.234375 -0.640625 9.234375 -0.921875 L 9.234375 -9.71875 L 5.328125 0 L 5.15625 0 L 1.453125 -9.234375 L 1.453125 -0.921875 C 1.453125 -0.640625 1.519531 -0.441406 1.65625 -0.328125 C 1.800781 -0.210938 1.945312 -0.15625 2.09375 -0.15625 Z M 2.09375 -0.15625 "/></g></g></g><g fill="#000000" fill-opacity="1"><g transform="translate(245.346596, 62.114507)"><g><path d="M 4.453125 -10.109375 L 4.890625 -10.109375 L 8.234375 -0.921875 C 8.347656 -0.640625 8.492188 -0.441406 8.671875 -0.328125 C 8.847656 -0.210938 9.007812 -0.15625 9.15625 -0.15625 L 9.25 -0.15625 L 9.25 0 L 6.734375 0 L 6.734375 -0.15625 L 6.828125 -0.15625 C 6.960938 -0.15625 7.078125 -0.210938 7.171875 -0.328125 C 7.273438 -0.441406 7.269531 -0.640625 7.15625 -0.921875 L 6.546875 -2.640625 L 1.875 -2.640625 L 1.265625 -0.921875 C 1.160156 -0.640625 1.15625 -0.441406 1.25 -0.328125 C 1.34375 -0.210938 1.460938 -0.15625 1.609375 -0.15625 L 1.6875 -0.15625 L 1.6875 0 L 0.09375 0 L 0.09375 -0.15625 L 0.171875 -0.15625 C 0.328125 -0.15625 0.492188 -0.210938 0.671875 -0.328125 C 0.847656 -0.441406 0.992188 -0.640625 1.109375 -0.921875 Z M 1.9375 -2.78125 L 6.5 -2.78125 L 4.21875 -9.046875 Z M 1.9375 -2.78125 "/></g></g></g><g fill="#000000" fill-opacity="1"><g transform="translate(258.456489, 62.114507)"><g><path d="M 2.09375 -0.15625 L 2.171875 -0.15625 L 2.171875 0 L 0.59375 0 L 0.59375 -0.15625 L 0.671875 -0.15625 C 0.828125 -0.15625 0.972656 -0.210938 1.109375 -0.328125 C 1.242188 -0.441406 1.3125 -0.640625 1.3125 -0.921875 L 1.3125 -9.1875 C 1.3125 -9.46875 1.242188 -9.664062 1.109375 -9.78125 C 0.972656 -9.894531 0.828125 -9.953125 0.671875 -9.953125 L 0.59375 -9.953125 L 0.59375 -10.109375 L 2.125 -10.109375 L 7.71875 -1.4375 L 7.71875 -9.1875 C 7.71875 -9.46875 7.644531 -9.664062 7.5 -9.78125 C 7.363281 -9.894531 7.222656 -9.953125 7.078125 -9.953125 L 7 -9.953125 L 7 -10.109375 L 8.578125 -10.109375 L 8.578125 -9.953125 L 8.5 -9.953125 C 8.351562 -9.953125 8.207031 -9.894531 8.0625 -9.78125 C 7.925781 -9.664062 7.859375 -9.46875 7.859375 -9.1875 L 7.859375 0 L 7.4375 0 L 1.453125 -9.296875 L 1.453125 -0.921875 C 1.453125 -0.640625 1.519531 -0.441406 1.65625 -0.328125 C 1.800781 -0.210938 1.945312 -0.15625 2.09375 -0.15625 Z M 2.09375 -0.15625 "/></g></g></g></svg>