<svg xmlns="http://www.w3.org/2000/svg" xmlns:xlink="http://www.w3.org/1999/xlink" width="500" zoomAndPan="magnify" viewBox="0 0 375 149.999998" height="200" preserveAspectRatio="xMidYMid meet" version="1.0"><defs><g/></defs><g fill="#1e1c1d" fill-opacity="1"><g transform="translate(25.892314, 67.995179)"><g><path d="M 33.265625 0.59375 C 29.222656 0.59375 25.441406 -0.113281 21.921875 -1.53125 C 18.398438 -2.957031 15.289062 -4.992188 12.59375 -7.640625 C 9.894531 -10.285156 7.796875 -13.429688 6.296875 -17.078125 C 4.796875 -20.734375 4.046875 -24.757812 4.046875 -29.15625 C 4.046875 -33.59375 4.816406 -37.660156 6.359375 -41.359375 C 7.910156 -45.054688 10.046875 -48.238281 12.765625 -50.90625 C 15.492188 -53.582031 18.644531 -55.644531 22.21875 -57.09375 C 25.789062 -58.550781 29.578125 -59.28125 33.578125 -59.28125 C 38.367188 -59.28125 42.550781 -58.40625 46.125 -56.65625 C 49.695312 -54.90625 52.628906 -52.65625 54.921875 -49.90625 C 57.222656 -47.15625 58.820312 -44.285156 59.71875 -41.296875 L 54.1875 -38.75 C 53.382812 -41.144531 52.132812 -43.460938 50.4375 -45.703125 C 48.738281 -47.953125 46.5 -49.800781 43.71875 -51.25 C 40.945312 -52.707031 37.515625 -53.4375 33.421875 -53.4375 C 30.328125 -53.4375 27.390625 -52.859375 24.609375 -51.703125 C 21.835938 -50.554688 19.390625 -48.921875 17.265625 -46.796875 C 15.148438 -44.671875 13.488281 -42.144531 12.28125 -39.21875 C 11.082031 -36.300781 10.484375 -33.070312 10.484375 -29.53125 C 10.484375 -24.882812 11.484375 -20.734375 13.484375 -17.078125 C 15.484375 -13.429688 18.21875 -10.546875 21.6875 -8.421875 C 25.164062 -6.304688 29.101562 -5.25 33.5 -5.25 C 38.894531 -5.25 43.300781 -6.632812 46.71875 -9.40625 C 50.144531 -12.175781 52.65625 -15.734375 54.25 -20.078125 L 59.796875 -17.453125 C 58.742188 -14.515625 57.054688 -11.65625 54.734375 -8.875 C 52.410156 -6.101562 49.453125 -3.832031 45.859375 -2.0625 C 42.265625 -0.289062 38.066406 0.59375 33.265625 0.59375 Z M 33.265625 0.59375 "/></g></g></g><g fill="#1e1c1d" fill-opacity="1"><g transform="translate(101.127745, 67.995179)"><g><path d="M 6.515625 0 L 0.21875 0 L 25.546875 -58.671875 L 32.515625 -58.671875 L 57.859375 0 L 51.328125 0 L 44.96875 -14.984375 L 12.96875 -14.984375 Z M 42.5625 -20.609375 L 28.921875 -52.3125 L 15.28125 -20.609375 Z M 42.5625 -20.609375 "/></g></g></g><g fill="#1e1c1d" fill-opacity="1"><g transform="translate(171.717261, 67.995179)"><g><path d="M 23.984375 0.59375 C 18.835938 0.59375 14.585938 -0.675781 11.234375 -3.21875 C 7.890625 -5.769531 5.367188 -9.269531 3.671875 -13.71875 L 9 -16.484375 C 10.394531 -13.085938 12.238281 -10.351562 14.53125 -8.28125 C 16.832031 -6.207031 19.984375 -5.171875 23.984375 -5.171875 C 26.273438 -5.171875 28.367188 -5.59375 30.265625 -6.4375 C 32.171875 -7.289062 33.695312 -8.476562 34.84375 -10 C 35.988281 -11.53125 36.5625 -13.316406 36.5625 -15.359375 C 36.5625 -18.460938 35.375 -20.925781 33 -22.75 C 30.632812 -24.570312 27.28125 -26.003906 22.9375 -27.046875 C 16.882812 -28.492188 12.445312 -30.539062 9.625 -33.1875 C 6.800781 -35.84375 5.390625 -39.21875 5.390625 -43.3125 C 5.390625 -46.65625 6.25 -49.523438 7.96875 -51.921875 C 9.695312 -54.328125 11.957031 -56.164062 14.75 -57.4375 C 17.550781 -58.707031 20.578125 -59.34375 23.828125 -59.34375 C 28.722656 -59.34375 32.707031 -58.179688 35.78125 -55.859375 C 38.851562 -53.535156 41.039062 -50.628906 42.34375 -47.140625 L 37.09375 -44.21875 C 36.445312 -45.863281 35.570312 -47.394531 34.46875 -48.8125 C 33.375 -50.238281 31.953125 -51.390625 30.203125 -52.265625 C 28.453125 -53.140625 26.28125 -53.578125 23.6875 -53.578125 C 21.582031 -53.578125 19.601562 -53.175781 17.75 -52.375 C 15.90625 -51.582031 14.410156 -50.4375 13.265625 -48.9375 C 12.117188 -47.4375 11.546875 -45.660156 11.546875 -43.609375 C 11.546875 -40.960938 12.53125 -38.835938 14.5 -37.234375 C 16.46875 -35.640625 19.65625 -34.269531 24.0625 -33.125 C 27.207031 -32.320312 30.050781 -31.320312 32.59375 -30.125 C 35.144531 -28.925781 37.21875 -27.453125 38.8125 -25.703125 C 40.0625 -24.359375 41.046875 -22.859375 41.765625 -21.203125 C 42.492188 -19.554688 42.859375 -17.757812 42.859375 -15.8125 C 42.859375 -12.96875 42.097656 -10.296875 40.578125 -7.796875 C 39.054688 -5.296875 36.894531 -3.269531 34.09375 -1.71875 C 31.300781 -0.175781 27.929688 0.59375 23.984375 0.59375 Z M 23.984375 0.59375 "/></g></g></g><g fill="#1e1c1d" fill-opacity="1"><g transform="translate(231.291488, 67.995179)"><g><path d="M 44.890625 -52.984375 L 14.3125 -52.984375 L 14.3125 -32.671875 L 42.265625 -32.671875 L 42.265625 -26.984375 L 14.3125 -26.984375 L 14.3125 -5.6875 L 45.1875 -5.6875 L 45.1875 0 L 8.171875 0 L 8.171875 -58.671875 L 44.890625 -58.671875 Z M 44.890625 -52.984375 "/></g></g></g><g fill="#1e1c1d" fill-opacity="1"><g transform="translate(293.563334, 67.995179)"><g><path d="M 30.875 -24.796875 L 30.875 0 L 24.65625 0 L 24.65625 -24.734375 L 1.953125 -58.671875 L 9.375 -58.671875 L 27.875 -30.65625 L 46.609375 -58.671875 L 53.65625 -58.671875 Z M 30.875 -24.796875 "/></g></g></g><g fill="#1e1c1d" fill-opacity="1"><g transform="translate(6.193901, 140.562418)"><g><path d="M 52 -58.671875 L 55.078125 -58.671875 L 55.078125 0 L 51.5625 0 L 11.765625 -54.546875 L 11.765625 0 L 8.6875 0 L 8.6875 -58.671875 L 12.4375 -58.671875 L 52 -4.421875 Z M 52 -58.671875 "/></g></g></g><g fill="#1e1c1d" fill-opacity="1"><g transform="translate(63.967302, 140.562418)"><g><path d="M 41.359375 -31.328125 L 41.359375 -28.46875 L 11.84375 -28.46875 L 11.84375 -2.84375 L 44.28125 -2.84375 L 44.28125 0 L 8.6875 0 L 8.6875 -58.671875 L 43.90625 -58.671875 L 43.90625 -55.90625 L 11.84375 -55.90625 L 11.84375 -31.328125 Z M 41.359375 -31.328125 "/></g></g></g><g fill="#1e1c1d" fill-opacity="1"><g transform="translate(106.903755, 140.562418)"><g><path d="M 5.765625 -58.671875 L 22.5625 -3.96875 L 39.859375 -58.671875 L 42.796875 -58.671875 L 60.25 -3.96875 L 77.03125 -58.671875 L 80.1875 -58.671875 L 61.90625 0 L 58.453125 0 L 41.296875 -53.65625 L 24.125 0 L 20.6875 0 L 2.46875 -58.671875 Z M 5.765625 -58.671875 "/></g></g></g><g fill="#1e1c1d" fill-opacity="1"><g transform="translate(183.560533, 140.562418)"><g><path d="M 12.8125 -58.671875 L 38.59375 -3.515625 L 64.296875 -58.671875 L 68.5 -58.671875 L 68.5 0 L 65.421875 0 L 65.421875 -54.25 L 40.171875 0 L 37.015625 0 L 11.765625 -54.03125 L 11.765625 0 L 8.6875 0 L 8.6875 -58.671875 Z M 12.8125 -58.671875 "/></g></g></g><g fill="#1e1c1d" fill-opacity="1"><g transform="translate(254.747146, 140.562418)"><g><path d="M 55.75 0 L 52.375 0 L 45.109375 -16.71875 L 11.09375 -16.71875 L 3.75 0 L 0.53125 0 L 26.453125 -58.671875 L 29.828125 -58.671875 Z M 43.84375 -19.5625 L 28.03125 -55.296875 L 12.359375 -19.5625 Z M 43.84375 -19.5625 "/></g></g></g><g fill="#1e1c1d" fill-opacity="1"><g transform="translate(305.027133, 140.562418)"><g><path d="M 52 -58.671875 L 55.078125 -58.671875 L 55.078125 0 L 51.5625 0 L 11.765625 -54.546875 L 11.765625 0 L 8.6875 0 L 8.6875 -58.671875 L 12.4375 -58.671875 L 52 -4.421875 Z M 52 -58.671875 "/></g></g></g></svg>