<svg xmlns="http://www.w3.org/2000/svg" xmlns:xlink="http://www.w3.org/1999/xlink" width="400" zoomAndPan="magnify" viewBox="0 0 300 74.999997" height="100" preserveAspectRatio="xMidYMid meet" version="1.0"><defs><g/><clipPath id="0a97a45d89"><path d="M 76.601562 25 L 295 25 L 295 45 L 76.601562 45 Z M 76.601562 25 " clip-rule="nonzero"/></clipPath></defs><g clip-path="url(#0a97a45d89)"><path fill="#000000" d="M 78.035156 36.753906 C 77.429688 37.683594 76.617188 36.953125 77.136719 36.136719 C 96.347656 6.125 108.402344 46.839844 147.023438 43.421875 C 206.488281 38.15625 256.199219 21.359375 293.199219 35.824219 C 295.777344 36.832031 293.960938 38.945312 291.789062 37.957031 C 260.992188 23.960938 203.789062 38.617188 146.765625 44.554688 C 108.125 48.578125 97.203125 7.234375 78.035156 36.753906 Z M 78.035156 36.753906 " fill-opacity="1" fill-rule="nonzero"/></g><g fill="#000000" fill-opacity="1"><g transform="translate(9.031479, 52.225309)"><g><path d="M 10.125 -27.578125 C 11.363281 -27.578125 12.363281 -27.171875 13.125 -26.359375 C 13.894531 -25.554688 14.394531 -24.578125 14.625 -23.421875 C 14.851562 -22.265625 14.722656 -21.15625 14.234375 -20.09375 C 13.753906 -19.03125 12.890625 -18.269531 11.640625 -17.8125 C 11.453125 -17.8125 11.265625 -17.8125 11.078125 -17.8125 C 10.898438 -17.8125 10.671875 -17.8125 10.390625 -17.8125 C 11.960938 -18.550781 12.957031 -19.453125 13.375 -20.515625 C 13.789062 -21.578125 13.847656 -22.601562 13.546875 -23.59375 C 13.242188 -24.582031 12.757812 -25.34375 12.09375 -25.875 C 11.425781 -26.40625 10.769531 -26.535156 10.125 -26.265625 C 9.332031 -25.890625 8.5 -24.914062 7.625 -23.34375 C 6.75 -21.78125 5.90625 -19.863281 5.09375 -17.59375 C 4.28125 -15.332031 3.570312 -12.953125 2.96875 -10.453125 C 2.375 -7.960938 1.960938 -5.597656 1.734375 -3.359375 C 1.503906 -1.117188 1.503906 0.785156 1.734375 2.359375 C 1.960938 3.929688 2.515625 4.898438 3.390625 5.265625 C 3.898438 5.585938 4.59375 5.664062 5.46875 5.5 C 6.351562 5.34375 7.328125 4.921875 8.390625 4.234375 C 9.585938 3.441406 10.925781 2.351562 12.40625 0.96875 C 13.882812 -0.414062 15.394531 -1.9375 16.9375 -3.59375 C 18.488281 -5.257812 19.976562 -6.925781 21.40625 -8.59375 C 22.84375 -10.257812 24.125 -11.785156 25.25 -13.171875 C 26.382812 -14.554688 27.253906 -15.617188 27.859375 -16.359375 C 27.992188 -16.492188 28.222656 -16.5625 28.546875 -16.5625 C 28.867188 -16.5625 29.03125 -16.46875 29.03125 -16.28125 C 28.0625 -15.03125 26.8125 -13.46875 25.28125 -11.59375 C 23.757812 -9.726562 22.085938 -7.769531 20.265625 -5.71875 C 18.441406 -3.664062 16.601562 -1.726562 14.75 0.09375 C 12.90625 1.925781 11.195312 3.421875 9.625 4.578125 C 8.519531 5.410156 7.4375 5.953125 6.375 6.203125 C 5.3125 6.453125 4.316406 6.460938 3.390625 6.234375 C 1.867188 5.816406 0.679688 4.90625 -0.171875 3.5 C -1.023438 2.09375 -1.585938 0.363281 -1.859375 -1.6875 C -2.140625 -3.75 -2.164062 -5.945312 -1.9375 -8.28125 C -1.707031 -10.613281 -1.242188 -12.910156 -0.546875 -15.171875 C 0.140625 -17.441406 1.003906 -19.507812 2.046875 -21.375 C 3.085938 -23.25 4.285156 -24.75 5.640625 -25.875 C 7.003906 -27.007812 8.5 -27.578125 10.125 -27.578125 Z M 10.125 -27.578125 "/></g></g></g><g fill="#000000" fill-opacity="1"><g transform="translate(36.818983, 52.225309)"><g><path d="M 4.921875 -21.203125 C 4.734375 -19.722656 4.570312 -18.414062 4.4375 -17.28125 C 4.300781 -16.15625 4.140625 -15.015625 3.953125 -13.859375 C 5.984375 -19.035156 8.0625 -23.039062 10.1875 -25.875 C 12.3125 -28.71875 14.296875 -30.539062 16.140625 -31.34375 C 17.992188 -32.15625 19.5 -32.101562 20.65625 -31.1875 C 21.988281 -30.125 22.851562 -28.609375 23.25 -26.640625 C 23.644531 -24.679688 23.722656 -22.5 23.484375 -20.09375 C 23.253906 -17.695312 22.882812 -15.25 22.375 -12.75 C 21.875 -10.257812 21.367188 -7.90625 20.859375 -5.6875 C 20.347656 -3.46875 20.007812 -1.582031 19.84375 -0.03125 C 19.6875 1.507812 19.847656 2.546875 20.328125 3.078125 C 20.816406 3.609375 21.800781 3.4375 23.28125 2.5625 C 24.8125 1.632812 26.414062 0.316406 28.09375 -1.390625 C 29.78125 -3.097656 31.410156 -4.921875 32.984375 -6.859375 C 34.554688 -8.796875 35.988281 -10.617188 37.28125 -12.328125 C 38.570312 -14.046875 39.585938 -15.390625 40.328125 -16.359375 C 40.460938 -16.492188 40.691406 -16.5625 41.015625 -16.5625 C 41.347656 -16.5625 41.515625 -16.46875 41.515625 -16.28125 C 40.535156 -15.03125 39.398438 -13.550781 38.109375 -11.84375 C 36.816406 -10.132812 35.421875 -8.367188 33.921875 -6.546875 C 32.421875 -4.722656 30.875 -2.976562 29.28125 -1.3125 C 27.6875 0.34375 26.101562 1.75 24.53125 2.90625 C 23.332031 3.789062 22.394531 4.273438 21.71875 4.359375 C 21.050781 4.453125 20.253906 4.269531 19.328125 3.8125 C 18.410156 3.351562 17.8125 2.425781 17.53125 1.03125 C 17.25 -0.351562 17.164062 -2.015625 17.28125 -3.953125 C 17.40625 -5.890625 17.648438 -7.976562 18.015625 -10.21875 C 18.390625 -12.457031 18.796875 -14.6875 19.234375 -16.90625 C 19.671875 -19.125 20.023438 -21.179688 20.296875 -23.078125 C 20.578125 -24.972656 20.71875 -26.566406 20.71875 -27.859375 C 20.71875 -29.148438 20.460938 -29.984375 19.953125 -30.359375 C 18.753906 -31.234375 17.140625 -30.941406 15.109375 -29.484375 C 13.078125 -28.023438 10.960938 -25.425781 8.765625 -21.6875 C 6.566406 -17.945312 4.566406 -13.050781 2.765625 -7 L 1.453125 0 C 1.128906 1.019531 0.664062 1.597656 0.0625 1.734375 C -0.53125 1.867188 -1.046875 1.726562 -1.484375 1.3125 C -1.921875 0.894531 -2.117188 0.410156 -2.078125 -0.140625 C -1.847656 -1.890625 -1.675781 -3.285156 -1.5625 -4.328125 C -1.445312 -5.367188 -1.34375 -6.289062 -1.25 -7.09375 C -1.15625 -7.90625 -1.050781 -8.785156 -0.9375 -9.734375 C -0.820312 -10.679688 -0.660156 -11.90625 -0.453125 -13.40625 C -0.242188 -14.90625 0.0664062 -16.90625 0.484375 -19.40625 C 0.710938 -20.320312 1.207031 -21.082031 1.96875 -21.6875 C 2.738281 -22.289062 3.445312 -22.59375 4.09375 -22.59375 C 4.738281 -22.59375 5.015625 -22.128906 4.921875 -21.203125 Z M 4.921875 -21.203125 "/></g></g></g></svg>