<svg xmlns="http://www.w3.org/2000/svg" xmlns:xlink="http://www.w3.org/1999/xlink" width="400" zoomAndPan="magnify" viewBox="0 0 300 74.999997" height="100" preserveAspectRatio="xMidYMid meet" version="1.0"><defs><g/></defs><g fill="#1e1c1d" fill-opacity="1"><g transform="translate(0.825791, 50.624995)"><g><path d="M 15.359375 0.28125 C 13.492188 0.28125 11.75 -0.046875 10.125 -0.703125 C 8.5 -1.359375 7.0625 -2.296875 5.8125 -3.515625 C 4.5625 -4.742188 3.59375 -6.195312 2.90625 -7.875 C 2.21875 -9.5625 1.875 -11.421875 1.875 -13.453125 C 1.875 -15.503906 2.226562 -17.382812 2.9375 -19.09375 C 3.65625 -20.800781 4.640625 -22.269531 5.890625 -23.5 C 7.148438 -24.738281 8.601562 -25.691406 10.25 -26.359375 C 11.90625 -27.023438 13.65625 -27.359375 15.5 -27.359375 C 17.707031 -27.359375 19.632812 -26.953125 21.28125 -26.140625 C 22.9375 -25.335938 24.296875 -24.300781 25.359375 -23.03125 C 26.421875 -21.769531 27.160156 -20.445312 27.578125 -19.0625 L 25.015625 -17.890625 C 24.640625 -18.992188 24.0625 -20.0625 23.28125 -21.09375 C 22.5 -22.132812 21.46875 -22.988281 20.1875 -23.65625 C 18.90625 -24.332031 17.316406 -24.671875 15.421875 -24.671875 C 13.992188 -24.671875 12.640625 -24.40625 11.359375 -23.875 C 10.078125 -23.34375 8.945312 -22.585938 7.96875 -21.609375 C 6.988281 -20.628906 6.222656 -19.460938 5.671875 -18.109375 C 5.117188 -16.765625 4.84375 -15.269531 4.84375 -13.625 C 4.84375 -11.476562 5.300781 -9.5625 6.21875 -7.875 C 7.144531 -6.195312 8.410156 -4.867188 10.015625 -3.890625 C 11.617188 -2.910156 13.4375 -2.421875 15.46875 -2.421875 C 17.957031 -2.421875 19.988281 -3.0625 21.5625 -4.34375 C 23.144531 -5.625 24.304688 -7.265625 25.046875 -9.265625 L 27.609375 -8.0625 C 27.117188 -6.695312 26.335938 -5.375 25.265625 -4.09375 C 24.191406 -2.8125 22.828125 -1.757812 21.171875 -0.9375 C 19.515625 -0.125 17.578125 0.28125 15.359375 0.28125 Z M 15.359375 0.28125 "/></g></g></g><g fill="#1e1c1d" fill-opacity="1"><g transform="translate(28.881097, 50.624995)"><g><path d="M 3.015625 0 L 0.109375 0 L 11.796875 -27.09375 L 15.015625 -27.09375 L 26.703125 0 L 23.703125 0 L 20.75 -6.921875 L 5.984375 -6.921875 Z M 19.65625 -9.515625 L 13.359375 -24.140625 L 7.0625 -9.515625 Z M 19.65625 -9.515625 "/></g></g></g><g fill="#1e1c1d" fill-opacity="1"><g transform="translate(54.791598, 50.624995)"><g><path d="M 11.0625 0.28125 C 8.6875 0.28125 6.726562 -0.304688 5.1875 -1.484375 C 3.644531 -2.660156 2.476562 -4.273438 1.6875 -6.328125 L 4.15625 -7.609375 C 4.800781 -6.046875 5.648438 -4.785156 6.703125 -3.828125 C 7.765625 -2.867188 9.21875 -2.390625 11.0625 -2.390625 C 12.125 -2.390625 13.09375 -2.582031 13.96875 -2.96875 C 14.851562 -3.363281 15.554688 -3.910156 16.078125 -4.609375 C 16.609375 -5.316406 16.875 -6.144531 16.875 -7.09375 C 16.875 -8.519531 16.328125 -9.65625 15.234375 -10.5 C 14.140625 -11.34375 12.585938 -12.003906 10.578125 -12.484375 C 7.796875 -13.148438 5.75 -14.09375 4.4375 -15.3125 C 3.132812 -16.539062 2.484375 -18.101562 2.484375 -20 C 2.484375 -21.539062 2.878906 -22.863281 3.671875 -23.96875 C 4.472656 -25.082031 5.519531 -25.929688 6.8125 -26.515625 C 8.101562 -27.097656 9.5 -27.390625 11 -27.390625 C 13.257812 -27.390625 15.097656 -26.851562 16.515625 -25.78125 C 17.929688 -24.71875 18.941406 -23.378906 19.546875 -21.765625 L 17.125 -20.40625 C 16.820312 -21.164062 16.414062 -21.875 15.90625 -22.53125 C 15.40625 -23.195312 14.75 -23.726562 13.9375 -24.125 C 13.132812 -24.53125 12.132812 -24.734375 10.9375 -24.734375 C 9.96875 -24.734375 9.054688 -24.546875 8.203125 -24.171875 C 7.347656 -23.804688 6.65625 -23.273438 6.125 -22.578125 C 5.59375 -21.890625 5.328125 -21.078125 5.328125 -20.140625 C 5.328125 -18.910156 5.78125 -17.925781 6.6875 -17.1875 C 7.601562 -16.457031 9.078125 -15.828125 11.109375 -15.296875 C 12.554688 -14.921875 13.867188 -14.457031 15.046875 -13.90625 C 16.222656 -13.351562 17.179688 -12.671875 17.921875 -11.859375 C 18.492188 -11.242188 18.945312 -10.554688 19.28125 -9.796875 C 19.613281 -9.035156 19.78125 -8.203125 19.78125 -7.296875 C 19.78125 -5.984375 19.425781 -4.75 18.71875 -3.59375 C 18.019531 -2.445312 17.023438 -1.515625 15.734375 -0.796875 C 14.441406 -0.078125 12.882812 0.28125 11.0625 0.28125 Z M 11.0625 0.28125 "/></g></g></g><g fill="#1e1c1d" fill-opacity="1"><g transform="translate(75.616827, 50.624995)"><g><path d="M 20.71875 -24.453125 L 6.609375 -24.453125 L 6.609375 -15.078125 L 19.515625 -15.078125 L 19.515625 -12.453125 L 6.609375 -12.453125 L 6.609375 -2.625 L 20.859375 -2.625 L 20.859375 0 L 3.765625 0 L 3.765625 -27.09375 L 20.71875 -27.09375 Z M 20.71875 -24.453125 "/></g></g></g><g fill="#1e1c1d" fill-opacity="1"><g transform="translate(97.68742, 50.624995)"><g><path d="M 14.25 -11.453125 L 14.25 0 L 11.375 0 L 11.375 -11.421875 L 0.90625 -27.09375 L 4.328125 -27.09375 L 12.875 -14.15625 L 21.515625 -27.09375 L 24.765625 -27.09375 Z M 14.25 -11.453125 "/></g></g></g><g fill="#1e1c1d" fill-opacity="1"><g transform="translate(122.43125, 50.624995)"><g><path d="M 24.015625 -27.09375 L 25.421875 -27.09375 L 25.421875 0 L 23.796875 0 L 5.4375 -25.1875 L 5.4375 0 L 4.015625 0 L 4.015625 -27.09375 L 5.75 -27.09375 L 24.015625 -2.046875 Z M 24.015625 -27.09375 "/></g></g></g><g fill="#1e1c1d" fill-opacity="1"><g transform="translate(150.97087, 50.624995)"><g><path d="M 19.09375 -14.453125 L 19.09375 -13.140625 L 5.46875 -13.140625 L 5.46875 -1.3125 L 20.4375 -1.3125 L 20.4375 0 L 4.015625 0 L 4.015625 -27.09375 L 20.265625 -27.09375 L 20.265625 -25.8125 L 5.46875 -25.8125 L 5.46875 -14.453125 Z M 19.09375 -14.453125 "/></g></g></g><g fill="#1e1c1d" fill-opacity="1"><g transform="translate(172.660939, 50.624995)"><g><path d="M 2.65625 -27.09375 L 10.40625 -1.828125 L 18.40625 -27.09375 L 19.75 -27.09375 L 27.8125 -1.828125 L 35.5625 -27.09375 L 37.015625 -27.09375 L 28.578125 0 L 26.984375 0 L 19.0625 -24.765625 L 11.140625 0 L 9.546875 0 L 1.140625 -27.09375 Z M 2.65625 -27.09375 "/></g></g></g><g fill="#1e1c1d" fill-opacity="1"><g transform="translate(209.918178, 50.624995)"><g><path d="M 5.921875 -27.09375 L 17.8125 -1.625 L 29.6875 -27.09375 L 31.625 -27.09375 L 31.625 0 L 30.203125 0 L 30.203125 -25.046875 L 18.546875 0 L 17.09375 0 L 5.4375 -24.9375 L 5.4375 0 L 4.015625 0 L 4.015625 -27.09375 Z M 5.921875 -27.09375 "/></g></g></g><g fill="#1e1c1d" fill-opacity="1"><g transform="translate(244.650067, 50.624995)"><g><path d="M 25.734375 0 L 24.1875 0 L 20.828125 -7.71875 L 5.125 -7.71875 L 1.734375 0 L 0.234375 0 L 12.21875 -27.09375 L 13.765625 -27.09375 Z M 20.234375 -9.03125 L 12.9375 -25.53125 L 5.703125 -9.03125 Z M 20.234375 -9.03125 "/></g></g></g><g fill="#1e1c1d" fill-opacity="1"><g transform="translate(269.730318, 50.624995)"><g><path d="M 24.015625 -27.09375 L 25.421875 -27.09375 L 25.421875 0 L 23.796875 0 L 5.4375 -25.1875 L 5.4375 0 L 4.015625 0 L 4.015625 -27.09375 L 5.75 -27.09375 L 24.015625 -2.046875 Z M 24.015625 -27.09375 "/></g></g></g></svg>