<svg xmlns="http://www.w3.org/2000/svg" xmlns:xlink="http://www.w3.org/1999/xlink" width="400" zoomAndPan="magnify" viewBox="0 0 300 74.999997" height="100" preserveAspectRatio="xMidYMid meet" version="1.0"><defs><g/><clipPath id="06d9a74d81"><path d="M 76.601562 25 L 295 25 L 295 46 L 76.601562 46 Z M 76.601562 25 " clip-rule="nonzero"/></clipPath></defs><g clip-path="url(#06d9a74d81)"><path fill="#b7b7a4" d="M 78.03125 36.921875 C 77.429688 37.855469 76.617188 37.117188 77.136719 36.296875 C 96.328125 6.125 108.367188 47.058594 146.941406 43.621094 C 206.34375 38.332031 256 21.445312 292.957031 35.984375 C 295.535156 36.996094 293.71875 39.125 291.546875 38.132812 C 260.789062 24.058594 203.648438 38.792969 146.6875 44.765625 C 108.089844 48.808594 97.179688 7.238281 78.03125 36.921875 Z M 78.03125 36.921875 " fill-opacity="1" fill-rule="nonzero"/></g><g fill="#b7b7a4" fill-opacity="1"><g transform="translate(9.031479, 52.225309)"><g><path d="M 10.117188 -27.578125 C -1.109375 -27.578125 -7.136719 3.328125 3.394531 6.238281 C 5.195312 6.722656 7.414062 6.238281 9.632812 4.574219 C 15.867188 -0.0703125 25.222656 -11.296875 29.035156 -16.285156 C 29.035156 -16.632812 28.132812 -16.632812 27.855469 -16.355469 C 24.878906 -12.542969 14.34375 0.277344 8.386719 4.226562 C 6.238281 5.613281 4.367188 5.890625 3.394531 5.265625 C -1.871094 3.050781 5.335938 -23.976562 10.117188 -26.261719 C 12.613281 -27.441406 16.632812 -20.789062 10.394531 -17.808594 C 10.949219 -17.808594 11.226562 -17.808594 11.640625 -17.808594 C 16.699219 -19.679688 15.039062 -27.578125 10.117188 -27.578125 Z M 10.117188 -27.578125 "/></g></g></g><g fill="#b7b7a4" fill-opacity="1"><g transform="translate(36.818983, 52.225309)"><g><path d="M 4.921875 -21.203125 C 5.195312 -23.90625 1.179688 -22.175781 0.484375 -19.402344 C -1.523438 -6.859375 -0.902344 -8.871094 -2.078125 -0.136719 C -2.285156 1.59375 0.414062 3.117188 1.457031 0 L 2.773438 -7 C 8.109375 -25.085938 16.355469 -32.984375 19.957031 -30.351562 C 23.558594 -27.789062 12.957031 0.484375 19.332031 3.8125 C 21.136719 4.710938 22.105469 4.710938 24.53125 2.910156 C 30.765625 -1.730469 37.695312 -11.296875 41.507812 -16.285156 C 41.507812 -16.632812 40.605469 -16.632812 40.328125 -16.355469 C 37.351562 -12.542969 29.382812 -1.179688 23.285156 2.5625 C 12.957031 8.871094 30.074219 -23.628906 20.648438 -31.183594 C 17.183594 -33.886719 10.046875 -29.382812 3.949219 -13.859375 C 4.296875 -16.144531 4.574219 -18.226562 4.921875 -21.203125 Z M 4.921875 -21.203125 "/></g></g></g><g fill="#f15a22" fill-opacity="1"><g transform="translate(101.616435, 63.514508)"><g><path d="M 5.28125 0.078125 C 4.40625 0.078125 3.613281 -0.113281 2.90625 -0.5 C 2.207031 -0.894531 1.65625 -1.429688 1.25 -2.109375 C 0.851562 -2.796875 0.65625 -3.566406 0.65625 -4.421875 C 0.65625 -5.273438 0.851562 -6.046875 1.25 -6.734375 C 1.65625 -7.421875 2.210938 -7.957031 2.921875 -8.34375 C 3.628906 -8.726562 4.421875 -8.921875 5.296875 -8.921875 C 5.953125 -8.921875 6.554688 -8.8125 7.109375 -8.59375 C 7.671875 -8.375 8.144531 -8.054688 8.53125 -7.640625 L 7.9375 -7.046875 C 7.25 -7.742188 6.378906 -8.09375 5.328125 -8.09375 C 4.617188 -8.09375 3.976562 -7.929688 3.40625 -7.609375 C 2.832031 -7.285156 2.382812 -6.84375 2.0625 -6.28125 C 1.738281 -5.726562 1.578125 -5.109375 1.578125 -4.421875 C 1.578125 -3.734375 1.738281 -3.109375 2.0625 -2.546875 C 2.382812 -1.992188 2.832031 -1.554688 3.40625 -1.234375 C 3.976562 -0.921875 4.617188 -0.765625 5.328125 -0.765625 C 6.390625 -0.765625 7.257812 -1.113281 7.9375 -1.8125 L 8.53125 -1.21875 C 8.144531 -0.800781 7.671875 -0.476562 7.109375 -0.25 C 6.546875 -0.03125 5.9375 0.078125 5.28125 0.078125 Z M 5.28125 0.078125 "/></g></g></g><g fill="#f15a22" fill-opacity="1"><g transform="translate(113.957608, 63.514508)"><g><path d="M 6.984375 -2.359375 L 2.0625 -2.359375 L 1 0 L 0.03125 0 L 4.0625 -8.84375 L 5 -8.84375 L 9.03125 0 L 8.046875 0 Z M 6.65625 -3.125 L 4.53125 -7.875 L 2.40625 -3.125 Z M 6.65625 -3.125 "/></g></g></g><g fill="#f15a22" fill-opacity="1"><g transform="translate(126.273501, 63.514508)"><g><path d="M 3.875 0.078125 C 3.21875 0.078125 2.585938 -0.0234375 1.984375 -0.234375 C 1.390625 -0.453125 0.925781 -0.734375 0.59375 -1.078125 L 0.953125 -1.796875 C 1.273438 -1.472656 1.703125 -1.210938 2.234375 -1.015625 C 2.765625 -0.816406 3.3125 -0.71875 3.875 -0.71875 C 4.664062 -0.71875 5.257812 -0.863281 5.65625 -1.15625 C 6.050781 -1.445312 6.25 -1.820312 6.25 -2.28125 C 6.25 -2.632812 6.140625 -2.914062 5.921875 -3.125 C 5.710938 -3.34375 5.453125 -3.507812 5.140625 -3.625 C 4.828125 -3.738281 4.394531 -3.863281 3.84375 -4 C 3.175781 -4.164062 2.644531 -4.328125 2.25 -4.484375 C 1.851562 -4.640625 1.515625 -4.875 1.234375 -5.1875 C 0.953125 -5.507812 0.8125 -5.945312 0.8125 -6.5 C 0.8125 -6.945312 0.925781 -7.351562 1.15625 -7.71875 C 1.394531 -8.082031 1.757812 -8.375 2.25 -8.59375 C 2.738281 -8.8125 3.34375 -8.921875 4.0625 -8.921875 C 4.570312 -8.921875 5.066406 -8.847656 5.546875 -8.703125 C 6.035156 -8.566406 6.457031 -8.378906 6.8125 -8.140625 L 6.5 -7.390625 C 6.125 -7.640625 5.722656 -7.820312 5.296875 -7.9375 C 4.878906 -8.0625 4.46875 -8.125 4.0625 -8.125 C 3.289062 -8.125 2.707031 -7.972656 2.3125 -7.671875 C 1.925781 -7.378906 1.734375 -6.992188 1.734375 -6.515625 C 1.734375 -6.160156 1.835938 -5.875 2.046875 -5.65625 C 2.265625 -5.445312 2.535156 -5.285156 2.859375 -5.171875 C 3.179688 -5.054688 3.617188 -4.929688 4.171875 -4.796875 C 4.816406 -4.640625 5.335938 -4.484375 5.734375 -4.328125 C 6.140625 -4.171875 6.484375 -3.929688 6.765625 -3.609375 C 7.046875 -3.296875 7.1875 -2.875 7.1875 -2.34375 C 7.1875 -1.894531 7.0625 -1.484375 6.8125 -1.109375 C 6.570312 -0.742188 6.203125 -0.453125 5.703125 -0.234375 C 5.210938 -0.0234375 4.601562 0.078125 3.875 0.078125 Z M 3.875 0.078125 "/></g></g></g><g fill="#f15a22" fill-opacity="1"><g transform="translate(137.299656, 63.514508)"><g><path d="M 7.703125 -0.8125 L 7.703125 0 L 1.4375 0 L 1.4375 -8.84375 L 7.515625 -8.84375 L 7.515625 -8.046875 L 2.375 -8.046875 L 2.375 -4.890625 L 6.953125 -4.890625 L 6.953125 -4.09375 L 2.375 -4.09375 L 2.375 -0.8125 Z M 7.703125 -0.8125 "/></g></g></g><g fill="#f15a22" fill-opacity="1"><g transform="translate(149.008612, 63.514508)"><g><path d="M 4.46875 -3.0625 L 4.46875 0 L 3.546875 0 L 3.546875 -3.0625 L 0.015625 -8.84375 L 1.015625 -8.84375 L 4.046875 -3.875 L 7.078125 -8.84375 L 8.015625 -8.84375 Z M 4.46875 -3.0625 "/></g></g></g><g fill="#f15a22" fill-opacity="1"><g transform="translate(160.287656, 63.514508)"><g/></g></g><g fill="#f15a22" fill-opacity="1"><g transform="translate(166.850305, 63.514508)"><g><path d="M 8.828125 -8.84375 L 8.828125 0 L 8.0625 0 L 2.375 -7.1875 L 2.375 0 L 1.4375 0 L 1.4375 -8.84375 L 2.21875 -8.84375 L 7.90625 -1.671875 L 7.90625 -8.84375 Z M 8.828125 -8.84375 "/></g></g></g><g fill="#f15a22" fill-opacity="1"><g transform="translate(180.380058, 63.514508)"><g><path d="M 7.703125 -0.8125 L 7.703125 0 L 1.4375 0 L 1.4375 -8.84375 L 7.515625 -8.84375 L 7.515625 -8.046875 L 2.375 -8.046875 L 2.375 -4.890625 L 6.953125 -4.890625 L 6.953125 -4.09375 L 2.375 -4.09375 L 2.375 -0.8125 Z M 7.703125 -0.8125 "/></g></g></g><g fill="#f15a22" fill-opacity="1"><g transform="translate(192.089011, 63.514508)"><g><path d="M 13.59375 -8.84375 L 10.609375 0 L 9.625 0 L 7.03125 -7.546875 L 4.421875 0 L 3.453125 0 L 0.46875 -8.84375 L 1.421875 -8.84375 L 3.984375 -1.234375 L 6.625 -8.84375 L 7.5 -8.84375 L 10.09375 -1.203125 L 12.6875 -8.84375 Z M 13.59375 -8.84375 "/></g></g></g><g fill="#f15a22" fill-opacity="1"><g transform="translate(209.386812, 63.514508)"><g><path d="M 10.625 -8.84375 L 10.625 0 L 9.734375 0 L 9.734375 -7.078125 L 6.25 -1.125 L 5.8125 -1.125 L 2.34375 -7.046875 L 2.34375 0 L 1.4375 0 L 1.4375 -8.84375 L 2.21875 -8.84375 L 6.0625 -2.28125 L 9.859375 -8.84375 Z M 10.625 -8.84375 "/></g></g></g><g fill="#f15a22" fill-opacity="1"><g transform="translate(224.712086, 63.514508)"><g><path d="M 6.984375 -2.359375 L 2.0625 -2.359375 L 1 0 L 0.03125 0 L 4.0625 -8.84375 L 5 -8.84375 L 9.03125 0 L 8.046875 0 Z M 6.65625 -3.125 L 4.53125 -7.875 L 2.40625 -3.125 Z M 6.65625 -3.125 "/></g></g></g><g fill="#f15a22" fill-opacity="1"><g transform="translate(237.027977, 63.514508)"><g><path d="M 8.828125 -8.84375 L 8.828125 0 L 8.0625 0 L 2.375 -7.1875 L 2.375 0 L 1.4375 0 L 1.4375 -8.84375 L 2.21875 -8.84375 L 7.90625 -1.671875 L 7.90625 -8.84375 Z M 8.828125 -8.84375 "/></g></g></g></svg>