<svg xmlns="http://www.w3.org/2000/svg" xmlns:xlink="http://www.w3.org/1999/xlink" width="400" zoomAndPan="magnify" viewBox="0 0 300 74.999997" height="100" preserveAspectRatio="xMidYMid meet" version="1.0"><defs><g/><clipPath id="3a2d9594ee"><path d="M 76.601562 25 L 295 25 L 295 46 L 76.601562 46 Z M 76.601562 25 " clip-rule="nonzero"/></clipPath></defs><g clip-path="url(#3a2d9594ee)"><path fill="#b7b7a4" d="M 78.03125 36.921875 C 77.429688 37.855469 76.617188 37.117188 77.136719 36.296875 C 96.328125 6.125 108.367188 47.058594 146.941406 43.621094 C 206.34375 38.332031 256 21.445312 292.957031 35.984375 C 295.535156 36.996094 293.71875 39.125 291.546875 38.132812 C 260.789062 24.058594 203.648438 38.792969 146.6875 44.765625 C 108.089844 48.808594 97.179688 7.238281 78.03125 36.921875 Z M 78.03125 36.921875 " fill-opacity="1" fill-rule="nonzero"/></g><g fill="#b7b7a4" fill-opacity="1"><g transform="translate(9.031479, 52.225309)"><g><path d="M 10.117188 -27.578125 C -1.109375 -27.578125 -7.136719 3.328125 3.394531 6.238281 C 5.195312 6.722656 7.414062 6.238281 9.632812 4.574219 C 15.867188 -0.0703125 25.222656 -11.296875 29.035156 -16.285156 C 29.035156 -16.632812 28.132812 -16.632812 27.855469 -16.355469 C 24.878906 -12.542969 14.34375 0.277344 8.386719 4.226562 C 6.238281 5.613281 4.367188 5.890625 3.394531 5.265625 C -1.871094 3.050781 5.335938 -23.976562 10.117188 -26.261719 C 12.613281 -27.441406 16.632812 -20.789062 10.394531 -17.808594 C 10.949219 -17.808594 11.226562 -17.808594 11.640625 -17.808594 C 16.699219 -19.679688 15.039062 -27.578125 10.117188 -27.578125 Z M 10.117188 -27.578125 "/></g></g></g><g fill="#b7b7a4" fill-opacity="1"><g transform="translate(36.818983, 52.225309)"><g><path d="M 4.921875 -21.203125 C 5.195312 -23.90625 1.179688 -22.175781 0.484375 -19.402344 C -1.523438 -6.859375 -0.902344 -8.871094 -2.078125 -0.136719 C -2.285156 1.59375 0.414062 3.117188 1.457031 0 L 2.773438 -7 C 8.109375 -25.085938 16.355469 -32.984375 19.957031 -30.351562 C 23.558594 -27.789062 12.957031 0.484375 19.332031 3.8125 C 21.136719 4.710938 22.105469 4.710938 24.53125 2.910156 C 30.765625 -1.730469 37.695312 -11.296875 41.507812 -16.285156 C 41.507812 -16.632812 40.605469 -16.632812 40.328125 -16.355469 C 37.351562 -12.542969 29.382812 -1.179688 23.285156 2.5625 C 12.957031 8.871094 30.074219 -23.628906 20.648438 -31.183594 C 17.183594 -33.886719 10.046875 -29.382812 3.949219 -13.859375 C 4.296875 -16.144531 4.574219 -18.226562 4.921875 -21.203125 Z M 4.921875 -21.203125 "/></g></g></g></svg>